<svg width="138" height="23" viewBox="0 0 138 23" fill="none" xmlns="http://www.w3.org/2000/svg">
<g clip-path="url(#clip0_211_217)">
<mask id="mask0_211_217" style="mask-type:luminance" maskUnits="userSpaceOnUse" x="0" y="0" width="138" height="23">
<path d="M0 0.309937H137.937V22.3099H0V0.309937Z" fill="white"/>
</mask>
<g mask="url(#mask0_211_217)">
<path fill-rule="evenodd" clip-rule="evenodd" d="M95.5088 0.388672V1.84874H94.0714V3.29218H92.6476V4.70116H91.1836V0.388672H95.5088Z" fill="white"/>
<path fill-rule="evenodd" clip-rule="evenodd" d="M95.5088 0.388672V1.84874H94.0714V3.29218H92.6476V4.70116H91.1836V0.388672H95.5088ZM95.5088 22.3156V20.8558H94.0714V19.4123H92.6476V18.0033H91.1836V22.3156H95.5088Z" fill="white"/>
<path fill-rule="evenodd" clip-rule="evenodd" d="M95.5088 22.3156V20.8558H94.0714V19.4123H92.6476V18.0033H91.1836V22.3156H95.5088ZM133.561 0.346619V1.80644H134.998V3.24989H136.422V4.65886H137.886V0.346375H133.561V0.346619Z" fill="white"/>
<path fill-rule="evenodd" clip-rule="evenodd" d="M133.561 0.346619V1.80644H134.998V3.24989H136.422V4.65886H137.886V0.346375H133.561V0.346619ZM133.561 22.2733V20.8135H134.998V19.37H136.422V17.9613H137.886V22.2733H133.561Z" fill="white"/>
<path fill-rule="evenodd" clip-rule="evenodd" d="M133.561 22.2733V20.8135H134.998V19.37H136.422V17.9613H137.886V22.2733H133.561Z" fill="white"/>
<path d="M17.0094 22.3266V17.4514H5.60535L5.12184 16.9855V14.21L5.69642 13.6564H14.0474V8.8506H5.58074L5.12361 8.41036V5.63469L5.50667 5.26558H16.6852V0.390625H-0.912109V22.3266H17.0094Z" fill="white"/>
<path d="M17.0094 22.3266V17.4514H5.60535L5.12184 16.9855V14.21L5.69642 13.6564H14.0474V8.8506H5.58074L5.12361 8.41036V5.63469L5.50667 5.26558H16.6852V0.390625H-0.912109V22.3266H17.0094ZM18.4147 0.412381H24.5568V16.9891L25.059 17.4731H35.8299V22.3483H18.413V0.412625L18.4147 0.412381Z" fill="white"/>
<path d="M18.4139 0.412354H24.5559V16.9891L25.0582 17.4731H35.829V22.3483H18.4121V0.412598L18.4139 0.412354ZM43.2283 0.412354H37.0863V22.3483H43.2283V0.412354Z" fill="white"/>
<path d="M43.2299 0.412354H37.0879V22.3483H43.2299V0.412354ZM52.8836 17.4734V16.8302L63.5745 5.00962V0.412598H44.6766V5.2878H55.2443V5.87593L44.5686 17.8554V22.3466H63.8627V17.4714H52.8815L52.8836 17.4734Z" fill="white"/>
<path d="M52.8834 17.4734V16.8302L63.5743 5.00962V0.412598H44.6764V5.2878H55.2441V5.87593L44.5684 17.8554V22.3466H63.8625V17.4714H52.8813L52.8834 17.4734Z" fill="white"/>
<path fill-rule="evenodd" clip-rule="evenodd" d="M73.6871 0.412354H80.5515L89.6212 22.3483H83.081L81.53 18.4673L81.0597 18.1001H72.8603L72.337 18.4966L70.7972 22.3483H64.6191L73.6871 0.412354ZM76.6774 7.20058L74.4362 13.2195L74.91 13.6764H79.0211L79.4574 13.256L77.2028 7.20058H76.6774Z" fill="white"/>
<path fill-rule="evenodd" clip-rule="evenodd" d="M73.6871 0.412383H80.5515L89.6212 22.3483H83.081L81.53 18.4673L81.0597 18.1001H72.8603L72.337 18.4966L70.7972 22.3483H64.6191L73.6871 0.412383ZM76.6774 7.2006L74.4362 13.2196L74.91 13.6764H79.0211L79.4574 13.256L77.2028 7.2006H76.6774ZM130.691 22.3156H118.749V20.8812H117.307V19.4468H115.865V14.7527H120.577V16.5616H122.02V17.996H127.422V16.5616H128.863V15.1365H127.422V13.7021H120.192V12.2584H117.307V10.8242H115.865V3.26676H117.307V1.83236H118.749V0.388672H130.691V1.83236H132.134V3.26652H133.587V7.96107H128.865V6.51763H127.424V4.71729H122.022V6.15169H120.579V7.5768H122.022V9.01121H129.252V10.4456H132.136V11.889H133.589V19.4502H132.136V20.8846H130.693V22.319L130.691 22.3156Z" fill="white"/>
<path fill-rule="evenodd" clip-rule="evenodd" d="M130.691 22.3156H118.749V20.8812H117.308V19.4468H115.865V14.7527H120.577V16.5616H122.02V17.996H127.422V16.5616H128.863V15.1365H127.422V13.7021H120.192V12.2584H117.308V10.8243H115.865V3.26676H117.308V1.83236H118.749V0.388672H130.691V1.83236H132.135V3.26652H133.587V7.96107H128.865V6.51763H127.424V4.71729H122.022V6.15169H120.579V7.57681H122.022V9.01121H129.252V10.4456H132.136V11.8891H133.589V19.4502H132.136V20.8846H130.693V22.319L130.691 22.3156ZM110.211 22.3156H99.7098V20.8812H98.2669V19.4468H96.8238V18.0126H95.3809V4.69921H96.8238V3.26481H98.2669V1.83041H99.7098V0.388672H110.211V1.83236H111.654V3.26652H113.107V4.70092H114.55V18.0161H113.107V19.4505H111.654V20.8849H110.211V22.3193V22.3156ZM106.94 16.1981H108.382V14.7542H109.824V7.96107H108.382V6.51763H106.94V5.08323H102.989V6.51763H101.536V7.96107H100.093V14.7547H101.536V16.1984H102.989V17.6328H106.94V16.1981Z" fill="white"/>
<path fill-rule="evenodd" clip-rule="evenodd" d="M110.211 22.3156H99.7098V20.8812H98.2669V19.4468H96.8238V18.0126H95.3809V4.69921H96.8238V3.26481H98.2669V1.83041H99.7098V0.388672H110.211V1.83236H111.654V3.26652H113.107V4.70092H114.55V18.0161H113.107V19.4505H111.654V20.8849H110.211V22.3193V22.3156ZM106.94 16.1981H108.382V14.7542H109.824V7.96107H108.382V6.51763H106.94V5.08323H102.989V6.51763H101.536V7.96107H100.093V14.7547H101.536V16.1984H102.989V17.6328H106.94V16.1981Z" fill="white"/>
</g>
</g>
<defs>
<clipPath id="clip0_211_217">
<rect width="138" height="22" fill="white" transform="translate(0 0.309937)"/>
</clipPath>
</defs>
</svg>
