<?xml version="1.0" encoding="UTF-8"?>
<svg id="_레이어_1" data-name="레이어 1" xmlns="http://www.w3.org/2000/svg" viewBox="0 0 687.88 521.38">
  <defs>
    <style>
      .cls-1 {
        fill: #0f2;
      }
    </style>
  </defs>
  <path class="cls-1" d="M590.62,127.71c41.52,14.76,101.56,49.02,97.02,100.59-3.68,41.81-72.33,73.18-107.08,84.92-3.06,1.03-19.67,4.7-19.96,6.06,10.86,18.38,20.62,38.61,28.49,58.49,13.68,34.56,26.69,83.19,6.32,117.29-35.96,60.18-150.98,1.64-194.32-25.28-13.6-8.44-26.63-17.99-39.47-27.53.93-1.6,2.24.38,3.09.91,6.89,4.27,13.21,9.6,19.99,14.01,41.39,26.92,122.12,67.15,171.7,54.87,30.2-7.48,40.5-36.23,37.09-64.66-2.44-20.31-9.9-42.36-17.86-61.14-9.03-21.3-21.18-42.76-34.52-61.46-2.6,4.53-4.39,9.31-7.27,13.71-8.43,12.83-39.38,32.98-53.55,40.45-26.93,14.18-65.18,9.57-93.67,1.33-17.54-5.07-30.4-13.9-49.54-12.54-3.67.26-10.02.81-12.32,3.68-6.44,8.02-10.98,26.59-16.62,36.38-.41.7-4.08,7.66-5.51,5.98.5-15.33,6.29-29.97,12.99-43.5-1.76-1.26-6.14,1.19-7.51,2.49-6.24,5.85-11.4,42.07-14.99,43.03-1.71.46-1.66-.71-1.99-1.96-.75-2.84.17-11.04.62-14.43,1.01-7.64,3.86-14.98,4.87-22.62-1.63.83-3.82.96-4.92,2.57-2.21,3.21-3.65,17.73-6.56,23.44-.93,1.81-2.02,4.27-4.5,3.99l1.99-25.99c-9.29,1.6-18.07,2.27-27.54,2.04-31.04-.75-63.72-10.13-85.35-33.65-2.45-2.67-5.12-8.95-6.15-9.85-.76-.66-2.46-.73-3.46-1.54-4.37-3.51-7.31-6.33-13.79-6.06-17.87,24.66-33.5,51.12-42.99,80.26-39.94,122.72,60.67,113.68,139.96,77.96,17.65-7.95,33.3-17.71,50.03-26.97.88-.49,2.5-2.21,3.29-.72-29.75,19.39-63.27,38.74-97.22,49.78-47.77,15.52-105.92,18.21-115.61-43.93-7.76-49.79,19.71-102.48,45.82-142.85-25.21-10.54-50.77-20.82-74.51-34.46-44.8-25.74-76.16-63.02-37.87-111.93,19.85-25.35,50.45-38.02,78.95-51.08l.27-3.25c-13.42-39.52-25-99.18,23.92-118.53,35.3-13.96,77.25-.81,110.77,12.75,40.34,16.33,77.74,38.75,112.99,64.05,30.67-21.67,62.39-41.93,96.82-57.22,37.84-16.8,91.01-37.01,131.06-17.7,47.09,22.71,30,80.54,18.64,119.83ZM101.7,124.67c1.88,1.34,21.4-6.95,25.13-8.18,55.7-18.37,114.66-26.59,173.23-29.77,2.4-.13,16.62,1.01,16.52-1.46-16.26-11.57-32.93-22.82-50.31-32.67C233.82,34.19,174.68,6.2,137.38,12.03c-58.2,9.1-50.05,70.43-35.68,112.63ZM586.48,124.63c11.06-33.54,22.22-88.75-17.89-107.35-30.63-14.21-72.55.58-101.95,13.02-33.83,14.3-65.32,33.52-95.01,54.97-.1,2.48,15.04,1.33,17.52,1.46,60.94,3.11,121.23,12.52,178.98,32.02,3.25,1.1,16.35,7.17,18.36,5.89ZM310.61,104.77c-8.9.63-18.71.28-27.49,1-7.18.59-13.71.7-20.19,3.81-6.99,3.36-14.86,9.69-18.29,16.69l11.31,2.55c1.38-3.26,8.14-12.07,12.06-11.01,6.23,1.69-4.69,7.76-5.22,9.64-1.5,5.22,2.97,4.52,5.86,1.84,2.62-2.42,4.49-8.39,7.58-11.42s10.72-6.47,14.98-7.02c7.64-.98,14.15,2.19,19.41-6.08ZM378.61,104.77c4.38,3.66,9.99,9.96,14.66,12.83,3.85,2.36,8.32,2.54,12.39,4.61,4.39,2.23,13.38,13.17,17.2,4.28,3.27-7.6-11.42-17.96-17.51-19.97-6.58-2.16-19.39-.72-26.73-1.76ZM480.57,136.71c2.77-3.98-13.01-14.47-16.05-16.37-12.05-7.58-24.34-12.76-38.92-12.57-1.84,1.72,5.69,11.51,7.8,12.91.52.35,8.25,4.02,8.73,4.07,5.6.52,8.75-3.48,16.46-.46,8.86,3.47,11.32,16.5,21.98,12.43ZM244.6,109.76c-46.69,5.23-93.49,13.78-137.57,29.95l16.05,37.06,24.51,42.98c-18.2-24.15-31.72-51.51-44.97-78.58-1.22-.78-15.04,5.26-17.69,6.4-73.74,31.78-111.29,82.83-29.08,137.48,22.64,15.05,46.78,27.56,72.51,36.53,1.16.38,2.16.25,3.24-.3,1.33-.66,15.63-23.05,15.95-25.1.94-5.99-2.62-10.2-2.99-15.9-.5-7.59,3.38-18.21,3.05-23.97-.03-.61-1.81-.47-2-1.25-.5-2.04-.15-8.27.11-10.7.83-7.54,5.76-14.39,3.88-21.63l1.98,1.01c.76-4.15,1.58-8.55,2.98-12.54s8-15.02,8.12-16.96c.32-5.31-7.49-18.28-4.94-22.36l26.65-1.35c3.76-6.46,6.72-13.39,10.79-19.7,6.12-9.51,13.77-16.36,24.73-20.27,4.44-1.58,9.09-1.54,13.2-3.8l11.47-17.02ZM364.6,125.75c.42-1.52-.4-1.66-.98-2.51-1.24-1.8-13.33-12.6-14.38-12.41-2.16,1.14-3.7,4.36-5.7,5.39-7.16,3.7-10.11,6.8-15.44,13.53-.8,1.01-1.93,1.29-1.48,3.01,6.76-2.92,14.27-1.17,21.25-2.24,5.78-.89,10.61-5.84,16.74-4.76ZM580.61,138.76c-36.26-11.47-73.27-20.57-111-26-.55,2.75.72,1.71,2.02,2.42,9.54,5.18,25.67,22.16,34.5,30.55,18.12,17.21,31.13,42.85,36.48,67.02,1.82.41,1.96-.56,2.82-1.67,4.19-5.39,9.28-15.07,12.69-21.31,3.04-5.54,24.58-48.7,22.48-51.01ZM193.61,170.63h22c5-16.48,25.19-25.12,41.49-23.99,2.51.17,6.72,2.25,8.48,1.51,2.73-1.14,17.64-18.76,21.5-22.55,2.35-2.31,7.95-5.14,8.54-8.46.63-3.51-8.49.33-10,1.01-9.7,4.36-7.77,9.99-13,16-5.78,6.65-23.21,2.76-31.02.99-7.04-1.6-4.7-4-12.66.33-7.57,4.11-14.82,12.58-16.34,21.17-2.46,2.57-3.41-8.89-7.01-6.53l-11.98,20.53ZM487.6,158.75c-.46-6.9-7.89-14.1-14.58-14.9-2.65-.32-8.58.88-9.41.46-3.1-1.58-6.41-12.09-13.97-14.08-5.2-1.37-20.88,1.81-21.89,7.16-.17.91,2.41,6.56,3.31,7.42,2.3,2.22,7.64,1.96,10.06,4.94.95-3.59-4.25-6.82,1.47-8.58,4.9-1.51,4.58,4.73,6.77,8.34,7.2,11.85,26.58,5.08,38.25,9.24ZM385.61,144.75c-4.33-3.95-10.12-15.29-15.98-8.49-.02,1.06,13.24,9.19,15.98,8.49ZM346.6,136.64c-4.4.16-26.87,2.1-28.57,4.97,3.34,9.18,5.76,19.31,4.58,29.02h15.99c-.59-6.35-.25-14.8,1.46-21.04,1.41-5.16,4.75-8.23,6.54-12.95ZM408.61,170.63c.44-1.75-.72-2-1.49-3.01-1.23-1.61-13.6-14.05-14.53-14.47-2.94-1.31-8.8-1.44-12.96-3.04-7.06-2.71-12.33-8.58-19.36-11.28-11,5.63-12.76,19.02-12.5,30.14l1.34,1.66h59.5ZM423.59,140.76c-3.15-.11-3.61,2.45-2.47,4.96,3.07,6.76,16.52,16.12,19.91,24.1,5.98,3.33,11.17-.89,11.13-7.11-3.28-1.21-6.12-2.06-9.22-3.79-3.88-2.16-15.79-9.36-17.53-12.46-.92-1.63-1.41-3.86-1.82-5.7ZM674.23,244.4c15.01-29-6.47-57.36-29.31-73.45-18.12-12.77-38.26-21.98-58.84-30.05-13,26.48-26.6,52.56-42.49,77.45,1.11,3.71.47,8.26,1.23,11.71s3.44,7.23,4.34,11.66c3.73,18.42-.7,37.62-2.14,56.05l11.29,18.05c4.5-.3,8.95-1.4,13.29-2.56,31.9-8.52,87.08-38.82,102.63-68.86ZM535.6,218.75c-4.18-26.49-22.3-60.66-45.95-74.54-1.32-.77-1.99-2-4.04-1.45,1.33,13.15,11.77,17.54,19.65,25.34,10.24,10.14,16.54,22.01,20.81,35.69l9.53,14.96ZM296.74,170.62c4.74-1.24,17.5,5.02,20.38.14,1.74-2.94-.71-24.97-4.01-24.99-6.12,7.28-22.57,13.77-16.37,24.85ZM224.61,170.63h21.5l12.49-14.51c-12.91-2.72-27.38,3.2-33.99,14.51ZM490.6,178.75c-.87-14.23-17.65-19.01-29.77-16.33l-4.26,8.8,34.03,7.54ZM513.6,191.75c1.55-1.67-7.87-15.82-9.58-17.91-1.06-1.3-6.68-7.87-8.41-6.08l2.54,14.95,15.45,9.04ZM351.53,214.63c7.52.95,16.77-.7,24.5,0v3h-35.5c-16.16,16.14-17.93,40.74-5.91,59.91,14.23,22.7,48.67,34.54,73.41,41.59,26.46,7.54,54.97,12.93,82.3,15.29l22.7-22.78-46.99-6.5c19.86-7.72,41.93-16.84,51.7-37.3,15.61-32.67-1.18-59.81-32.45-71.97-29.47-11.47-56.43-7.41-86.72-7.2-26.51.18-53.04-.23-79.54-.04,3.8,12.56,19.8,24.38,32.5,25.99ZM305.61,188.63h-126c4.32,9.7,11.18,17.08,20.79,21.71,1.89.91,10.33,4.29,11.71,4.29h44.49l-1.65,3-34.2.09-28.14,91.91h75.51l37.5-121ZM164.24,241.46c2.81-10.39,4.67-21.08,8.29-31.28l-5.43-7.42c-6.07,8.72-6.97,19.55-9.35,29.64-2.47,10.47-4.66,10.12-2.23,21.93.56,2.72-1.34,7.49,3.07,7.41,1.39-5.4,2.9-10.79,4.34-16.19.5-1.87,1.17-3.61,1.31-4.1ZM318.61,216.77l-2.5-.99-34.54,110.94-57.91,1.09c-.42,10.13,7,7.14,13.44,7.96,18.67,2.37,37.02,4.31,56,2.98,2.37-.17,14.34-1.53,14.49-3.48-4.26-6.67-13.14-12.06-12.89-20.91.1-3.41,3.71-14.83,8.39-13.59,3.49,2.74-1.15,6.18-2.04,9.94-.53,2.26-.75,4.65-.32,6.94l17.88,3.12c-.93-9.35,2.46-18.07,5.95-26.51-17.47-22.37-19.89-52.64-5.96-77.48ZM186.33,222.03c-.27-.43-8.08-5.86-8.72-5.27l-8.01,37.99c2.14.49,2.28-1.09,3.17-2.31,3.3-4.52,15.1-17.46,16.34-20.74s-.99-3.23-1.75-5.23c-.56-1.48-.47-3.5-1.04-4.43ZM153.6,279.75c-.24-8.01,9.75-12.54.51-18.99-.2,3.78-1.32,7.72-1.54,11.45-.09,1.61-.75,6.85,1.03,7.54ZM542.6,289.75l1.99-28.99-6.01,10.47c.31,5.55-1.02,12.23,1.79,17.24.63,1.13-.06,1.71,2.23,1.28ZM180.6,287.76c-2.17-.51-2.22,1.22-3.21,2.28-4.58,4.91-7.42,10.96-2.28,16.71l5.49-18.99ZM510.61,301.74c4.94,2.4,17.3,3.47,9.55-4.03-4.99-4.83-10.97,1.93-9.55,4.03ZM354.44,316.92c-9.53-4.58-17.74-11.49-25.83-18.16-4.6,9.83-6.53,20.47-3.74,31.22.79,3.05,1.08,5.55,4.22,6.78,7.56,2.94,15.07,2.76,21.46-2.54,4.69-3.88,4.35-11.71,3.87-17.31ZM398.92,333.86l-33.89-11.1c1.19,5.87-1.99,9.1-4,13.98,9.07,3.52,15.93,10.08,26.51,9.02,3.87-.39,7.3-2.87,11.5-2l-.11-9.91ZM532.6,322.76c-2.82-2.71-13.55,6.65-14.53,9.02-.57,1.39,1.17,10.01-.46,12.97,6.86-5.43,13.34-13.26,14.98-21.99ZM188.61,327.63c-3.69,10.27,15.12,15.72,21.55,12.05,2.21-1.26,6.25-6.25,4.98-9.02-.21-.45-2.82-3.04-3.03-3.04h-23.5ZM319.51,329.63l-6.9-.1c2.69,11.45,12.24,22.83,24.99,21.98l-11.99-7.5c-3.38-4.12-5.16-9.19-6.1-14.39ZM463.6,348.77l-58.99-13.01c1.29,2.36,2.24,8.05,4.05,9.44,2.25,1.73,16.57,6.51,19.9,7.1,3.75.67,7.85-.13,11.11.89,4.46,1.4,8.51,10.72,15.5,6.61,1.53-.9,9.39-9.71,8.44-11.04ZM232.6,359.75l-8.5-17.98c-6.88,7.48-19.21,7.03-28.3,4.28-4.91-1.49-8.03-4.9-11.67-6.42-1.64-.68-1.93-.1-3.52.12-.44,1.88,1.06,2.37,1.99,3.5,4.29,5.2,10.87,11.17,17.01,13.99,11.71,5.38,20.65,3.11,32.98,2.51ZM346.61,344.77c4.17,11.36,22.7,10.87,31.98,6.49l-21.66-11.3-10.32,4.81ZM245.38,342.99l-14.77-1.22c1.92,4.3,6.4,17.31,11.56,18.03,3.98.56,5.77-3.42,9.43-4.06l-6.23-12.75ZM289.11,350.76c7.18.97,18.29,0,26,0,.46,0,2.65,2.8,2.49-.49-2.6-1.37-4.74-6.34-6.42-7.58-2.93-2.19-10.22.73-14.09,1.05-6.71.55-13.75.5-20.48,1.03,2.01,2.79,9.32,5.56,12.5,5.99ZM266.38,344.98l-14.77-1.22c1.55,8.46,10.06,11.04,17.55,11.96,3.52.43-.46-3.49-1.07-4.95-.79-1.89-1.08-3.88-1.71-5.79ZM422.6,369.77c-5.19-1.75-10.83-6.86-14.41-11.1-2.46-2.91-4.41-8.96-8.32-9.75-9.56-1.93-9.85,6.17-14.89,8.7-3.48,1.75-6.64.12-9.37,2.63,11.69,6.71,24.91,10.97,38.47,11.5l8.51-1.99ZM493.61,351.77l-22.31-2.08-10.68,15.07c12.22-.41,24.5-3.71,32.99-12.98ZM441.61,364.63c-1.69-7.34-9.32-5.87-15-7.5-4.58-1.32-9.02-2.88-13.49-4.51-1.67,1.01.32,2.22.98,3.02,2.4,2.92,9.2,8.99,13.01,8.99h14.5ZM301.61,363.77c-1.61-.22-2.9,1.06-4.47,1.02-13.08-.34-27.33-3.59-40.04-6.65-10.96,8.48-18.56,10.15-32.24,8.86-5.37-.51.16,3.98,2.05,4.96,12.04,6.26,24.47,1.19,36.33-.08,12.71-1.36,27.79.43,38.38-8.11Z"/>
  <path class="cls-1" d="M432.11,216.33c26.93.7,15.96,41.37,4.91,54.35-11.74,13.78-35.84,13.03-36.44-8.47-.52-18.51,9.47-46.45,31.53-45.87ZM431.6,233.75c-4.63-.84-6.88,3.33-8.71,6.79-3.57,6.78-4.85,14.61-4.28,22.21,7.73.65,15.61-26.43,12.99-29Z"/>
</svg>