<svg width="157" height="36" viewBox="0 0 157 36" fill="none" xmlns="http://www.w3.org/2000/svg">
<g clip-path="url(#clip0_211_248)">
<path d="M48.0093 24.8188C52.1499 24.8188 54.6344 21.7738 54.6344 18.1513C54.6344 14.5551 52.1499 11.51 48.0093 11.51C43.8945 11.51 41.4102 14.5551 41.4102 18.1513C41.4102 21.7738 43.8945 24.8188 48.0093 24.8188ZM48.0093 21.8525C45.9649 21.8525 44.8262 20.1463 44.8262 18.1513C44.8262 16.1826 45.9649 14.4763 48.0093 14.4763C50.0537 14.4763 51.2184 16.1826 51.2184 18.1513C51.2184 20.1463 50.0537 21.8525 48.0093 21.8525Z" fill="white"/>
<path d="M57.0723 24.5038H60.3588V16.13C60.9023 15.3163 62.3515 14.7125 63.4384 14.7125C63.8007 14.7125 64.1114 14.7388 64.3442 14.7913V11.5363C62.7915 11.5363 61.2388 12.4288 60.3588 13.5575V11.825H57.0723V24.5038Z" fill="white"/>
<path d="M68.0273 9.96125C69.1143 9.96125 69.9941 9.06875 69.9941 7.96625C69.9941 6.86375 69.1143 5.97125 68.0273 5.97125C66.9663 5.97125 66.0605 6.86375 66.0605 7.96625C66.0605 9.06875 66.9663 9.96125 68.0273 9.96125ZM66.397 24.5038H69.6836V11.825H66.397V24.5038Z" fill="white"/>
<path d="M72.6841 27.7588C74.2368 29.1501 75.919 29.6488 78.0669 29.6488C81.1465 29.6488 84.8214 28.4675 84.8214 23.6375V11.825H81.5088V13.4525C80.4995 12.1663 79.1538 11.51 77.6528 11.51C74.4956 11.51 72.1406 13.82 72.1406 17.9675C72.1406 22.1938 74.5214 24.4251 77.6528 24.4251C79.1797 24.4251 80.5254 23.6901 81.5088 22.4301V23.7163C81.5088 26.21 79.6455 26.9188 78.0669 26.9188C76.4883 26.9188 75.1684 26.4725 74.1591 25.3438L72.6841 27.7588ZM81.5088 20.015C80.9654 20.8288 79.7749 21.4588 78.6879 21.4588C76.8247 21.4588 75.5308 20.1463 75.5308 17.9675C75.5308 15.7888 76.8247 14.4763 78.6879 14.4763C79.7749 14.4763 80.9654 15.08 81.5088 15.92V20.015Z" fill="white"/>
<path d="M89.7129 9.96125C90.7998 9.96125 91.6797 9.06875 91.6797 7.96625C91.6797 6.86375 90.7998 5.97125 89.7129 5.97125C88.6519 5.97125 87.7461 6.86375 87.7461 7.96625C87.7461 9.06875 88.6519 9.96125 89.7129 9.96125ZM88.0825 24.5038H91.3692V11.825H88.0825V24.5038Z" fill="white"/>
<path d="M103.064 24.5038H106.35V15.5525C106.35 13.085 105.03 11.51 102.287 11.51C100.243 11.51 98.7159 12.5075 97.9136 13.4788V11.825H94.627V24.5038H97.9136V15.9726C98.4571 15.2113 99.4664 14.4763 100.76 14.4763C102.158 14.4763 103.064 15.08 103.064 16.8388V24.5038Z" fill="white"/>
<path d="M113.807 24.8188C115.179 24.8188 116.059 24.4513 116.55 24.0051L115.852 21.4851C115.671 21.6688 115.205 21.8526 114.713 21.8526C113.988 21.8526 113.574 21.2488 113.574 20.4613V14.7388H116.11V11.825H113.574V8.36005H110.262V11.825H108.191V14.7388H110.262V21.3538C110.262 23.6113 111.504 24.8188 113.807 24.8188Z" fill="white"/>
<path d="M118.357 24.5038H121.644V16.13C122.188 15.3163 123.637 14.7125 124.724 14.7125C125.086 14.7125 125.397 14.7388 125.629 14.7913V11.5363C124.077 11.5363 122.524 12.4288 121.644 13.5575V11.825H118.357V24.5038Z" fill="white"/>
<path d="M136.275 24.5038H139.587V11.825H136.275V13.4525C135.292 12.1663 133.894 11.51 132.419 11.51C129.236 11.51 126.881 14.03 126.881 18.1775C126.881 22.4038 129.262 24.8188 132.419 24.8188C133.92 24.8188 135.292 24.1363 136.275 22.9026V24.5038ZM136.275 20.4088C135.705 21.2488 134.542 21.8525 133.428 21.8525C131.565 21.8525 130.271 20.3563 130.271 18.1775C130.271 15.9725 131.565 14.5026 133.428 14.5026C134.542 14.5026 135.705 15.1063 136.275 15.9463V20.4088Z" fill="white"/>
<path d="M144.477 9.96125C145.564 9.96125 146.444 9.06875 146.444 7.96625C146.444 6.86375 145.564 5.97125 144.477 5.97125C143.416 5.97125 142.51 6.86375 142.51 7.96625C142.51 9.06875 143.416 9.96125 144.477 9.96125ZM142.847 24.5038H146.133V11.825H142.847V24.5038Z" fill="white"/>
<path d="M152.912 24.8188C154.258 24.8188 155.137 24.4513 155.63 24.0051L154.931 21.4851C154.775 21.6688 154.309 21.8526 153.818 21.8526C153.093 21.8526 152.679 21.2488 152.679 20.4613V6.99506H149.393V21.3538C149.393 23.6113 150.608 24.8188 152.912 24.8188Z" fill="white"/>
<path fill-rule="evenodd" clip-rule="evenodd" d="M17.2527 9.0139C12.4638 9.0139 8.58099 12.9517 8.58099 17.8099C8.58099 22.6674 12.4638 26.6053 17.2527 26.6053C19.9146 26.6053 22.2959 25.3882 23.8864 23.4733L30.4516 29.0783C27.2867 32.8883 22.5488 35.3098 17.2527 35.3098C7.724 35.3098 0 27.4746 0 17.8099C0 8.14463 7.724 0.309937 17.2527 0.309937V9.0139ZM32.1606 26.6221L24.7455 22.2389C24.9986 21.7995 25.2153 21.3361 25.3911 20.8524L33.445 23.8633C33.0953 24.8257 32.6639 25.7478 32.1606 26.6221ZM25.9239 17.8098H34.5055C34.5055 16.7731 34.4161 15.7577 34.2456 14.7706L25.7934 16.2823C25.879 16.7785 25.9239 17.2888 25.9239 17.8098ZM30.5148 6.61694L23.9185 12.1842C23.5954 11.7908 23.2391 11.4267 22.854 11.0957L28.3967 4.45146C29.163 5.10981 29.872 5.83423 30.5148 6.61694Z" fill="white"/>
</g>
<defs>
<clipPath id="clip0_211_248">
<rect width="157" height="35" fill="white" transform="translate(0 0.309937)"/>
</clipPath>
</defs>
</svg>
