<?xml version="1.0" encoding="UTF-8"?>
<svg id="_레이어_1" xmlns="http://www.w3.org/2000/svg" xmlns:xlink="http://www.w3.org/1999/xlink" version="1.1" viewBox="0 0 1200 522">
  <!-- Generator: Adobe Illustrator 29.2.1, SVG Export Plug-In . SVG Version: 2.1.0 Build 116)  -->
  <defs>
    <style>
      .st0, .st1, .st2 {
        fill: #09000d;
      }

      .st1 {
        stroke-width: 0.4rem;
      }

      .st1, .st2, .st3, .st4, .st5 {
        stroke: #09000d;
        stroke-linejoin: round;
      }

      .st2 {
        stroke-width: 1.3rem;
      }

      .st6, .st7, .st3, .st4, .st5 {
        fill: #00BD39;
      }

      .st6, .st8 {
        display: none;
      }

      .st3 {
        stroke-width: 1.2rem;
      }

      .st3, .st4, .st5 {
        fill-opacity: 0;
        stroke-linecap: round;
      }

      .st4 {
        stroke-width: 2.6rem;
      }

      .st5 {
        stroke-width: 0.1rem;
      }
    </style>
  </defs>
  <g id="_x38_5e4dbf4-e03f-486c-aac5-7b6da1aa3901">
    <g>
      <g id="_x38_5e4dbf4-e03f-486c-aac5-7b6da1aa3901-child-0">
        <path class="st7" d="M1093.8,321c0,60.3-48.9,109.2-109.2,109.2s-109.2-48.9-109.2-109.2,48.9-109.2,109.2-109.2,109.2,48.9,109.2,109.2Z"/>
      </g>
      <g id="_x38_5e4dbf4-e03f-486c-aac5-7b6da1aa3901-child-1">
        <path d="M984.6,210.4c-56,0-102.3,41.8-109.6,95.8h0c-.7,5-1,9.9-1,14.8,0,61,49.6,110.6,110.6,110.6s110.6-49.6,110.6-110.6-49.6-110.6-110.6-110.6ZM888.1,369c0-.1,0-.2,0-.3,2,2.9,4.3,5.7,6.8,8.2.4,1.6.8,3.3,1.2,4.9-.9-1-1.7-2.1-2.4-3.2-2-3.1-3.8-6.4-5.5-9.7h0ZM1092.5,321v2.6c0-.8-.3-1.7-.5-2.5.2-.8.3-1.6.5-2.5v2.4h0ZM1091.3,337.4c-2.1,5.8-4.9,11.4-8.5,16.4,0-1.4-.3-2.7-.6-4.1-.3-1.7-.7-3.4-1.1-5.1,4.6-6.3,8.1-13.3,10.2-20.9.3,1.9.6,3.8.8,5.7-.2,2.7-.5,5.4-.9,8h0ZM1081.5,363.8c-3.9,5.5-8.5,10.6-13.5,15.1-.3-2.3-.7-4.6-1-6.9,5.6-4.6,10.6-9.8,14.9-15.5,0,2.4,0,4.9-.4,7.3h0ZM1080,371.3v.2c-3.4,5-7.3,9.6-11.6,13.7,0-1.8,0-3.6-.3-5.4,4.9-4.3,9.3-9.1,13.1-14.3-.3,1.9-.7,3.8-1.2,5.7h0ZM1082.6,363.7c1.1-1.6,2.1-3.1,3-4.7-1.1,2.8-2.2,5.6-3.5,8.3.2-1.2.4-2.4.5-3.6h0ZM1083.8,280.4c1,5.8.9,11.8-.3,17.6-1.5-2.8-3.2-5.6-5.1-8.3,1.3-5.7,1.5-11.6.6-17.3-.3-2-.8-4-1.5-6,2.1,3.5,4,7.2,5.6,10.9.2,1,.4,2.1.6,3.1h.1ZM1067.2,386.4c-6.6,6.1-13.9,11.3-21.8,15.6,0-2.2.2-4.4,0-6.6,7.2-3.8,14-8.3,20.3-13.5.5-.4.9-.8,1.3-1.1.2,1.9.3,3.7,0,5.6h0ZM1052.4,404.8c-2.3,1.9-4.7,3.7-7.1,5.3-.6.3-1.1.7-1.6,1,.2-.6.4-1.2.6-1.8,3.4-1.9,6.7-3.9,10-6.1-.6.5-1.1,1-1.7,1.5h-.2ZM1042.1,412.1c-6.6,3.9-13.5,7-20.7,9.5,0-.8-.2-1.6-.3-2.4,7.5-2.3,14.8-5.4,21.7-9-.2.7-.5,1.3-.7,2h0ZM1021,418.4c-.2-1.6-.4-3.3-.6-4.9,8.2-2.5,16.2-5.8,23.8-9.8-.2,1.8-.5,3.7-1,5.5-7.1,3.8-14.5,6.9-22.2,9.3h0ZM937.7,417.7c1.1.5,2.3.9,3.5,1.3v.3c-1.3-.5-2.4-1-3.5-1.6h0ZM893.2,356.2c4.7,4.5,9.9,8.3,15.5,11.6,0,3.4.2,6.7.4,10.2-5.4-3-10.5-6.8-15-11-.5-3.6-.8-7.2-.9-10.7h0ZM880,298.4c1.3-2.5,2.7-4.8,4.1-7.2,0,1.3.2,2.6.4,3.8.5,2.7,1.2,5.4,2.2,8-1.7,3-3.1,6.2-4.4,9.4-.8-2.3-1.4-4.6-1.8-6.9-.4-2.4-.6-4.8-.6-7.2h0ZM880.2,294.1c1.2-4.7,2.8-9.3,4.6-13.8-.6,3-.8,6-.8,9.1-1.4,2.2-2.7,4.4-4,6.6,0-.6,0-1.3,0-1.9h.1ZM893.8,264.7c1.9-1.9,3.9-3.7,6-5.4-1.4,4.2-1.9,8.6-1.7,13-2.5,2.4-4.8,4.9-7,7.6,0-5.2.8-10.3,2.7-15.2ZM923.8,232c-3.4,2.9-6.5,6.2-9.1,9.8-2,.8-3.9,1.6-5.8,2.6h0c4.6-4.6,9.6-8.7,14.9-12.4h0ZM1042.9,380.7c.3,1.9.5,3.7.7,5.4-8.3,4.2-16.9,7.6-25.8,10.2-.5-3.3-1.1-6.5-1.7-9.7,8.9-2.6,17.6-6,25.9-10.3.3,1.5.6,3,.8,4.4h0ZM909.7,252.8c3-1.6,6-3,9.1-4.2-.6,2.7-.8,5.4-.6,8.2-3.5,2.1-6.8,4.4-10.1,6.8-.2-3.6.4-7.3,1.5-10.7h0ZM1026.3,226.1c-2.7-.2-5.4-.3-8.1-.2-2.2-2.2-4.7-4.1-7.3-5.7,1.8-.3,3.6-.4,5.4-.5,3.6,1.7,6.9,3.8,10,6.3h0ZM990.9,407.4c.3,1.2.6,2.3.9,3.5-9.3,1.1-18.6,1.3-27.9.6-.4-1.2-.7-2.4-.9-3.6-.3-1.5-.6-2.9-.9-4.4,3.3.2,6.7.3,10.1.3,5.9,0,11.9-.4,17.7-1,.4,1.6.7,3.1,1,4.5h0ZM961.9,402.7c-.6-3.2-1.2-6.4-1.8-9.6,3.2.2,6.5.3,9.9.3,5.9,0,11.9-.4,17.8-1,.6,3.5,1.3,6.7,1.9,9.7-9.2,1-18.6,1.3-27.8.6h0ZM933.5,352.3c7.1,1.7,14.4,2.9,21.7,3.4.2,4.4.5,8.8.8,13.2-7.6-.6-15.1-1.8-22.4-3.7-.2-4.3-.3-8.6-.2-12.9h.1ZM919.6,248.3c3.6-1.4,7.2-2.6,10.9-3.5-.5,1.9-.7,3.9-.6,5.8-3.8,1.7-7.4,3.7-11,5.8-.2-2.7,0-5.4.7-8.1h0ZM983.5,213.2c-.6.6-1.2,1.2-1.7,1.9-.6.7-1.1,1.5-1.7,2.4-3-.1-6,0-9,.3,0-1.3.3-2.5.7-3.7,3.9-.5,7.8-.7,11.7-.8h0ZM977.4,218h2.2c-.9,1.4-1.8,3.1-2.7,4.9-2-.1-4,0-6,.1,0-1.8,0-3.4.2-4.8,2.1-.2,4.2-.3,6.4-.3h-.1ZM1037.8,255.9c-3.8-1.9-7.8-3.7-11.8-5.3.6-2.6.7-5.3.5-8,3.9.9,7.8,1.9,11.6,3.1.5,3.4.4,6.8-.3,10.1h0ZM956.1,328.2c2.6.2,5.1.3,7.8.3,4.7,0,9.5-.3,14.2-.8.6,4.5,1.1,8.9,1.7,13.3-7.9.9-15.9,1.1-23.9.6,0-4.5,0-8.9.2-13.3h0ZM931.3,244.5c3.8-1,7.8-1.8,12-2.4-.2,1.1-.3,2.2-.3,3.3-4.2,1.4-8.4,3-12.5,4.9,0-1.9.2-3.9.7-5.7h0ZM950.2,232.3c.3,0,.6.1.9.2,2.6.7,5.3,1.7,8,2.7-.7.6-1.3,1.4-1.8,2.1-3.7-.4-7.4-.7-11-.7,1.1-1.6,2.4-3.1,3.9-4.3h0ZM1010.5,232.8c-4.3,0-8.7.3-13,.7-.6-1.1-1.3-2.1-2.1-3,3.7-1,7.5-1.8,11.3-2.4,1.4,1.4,2.7,3,3.7,4.7h0ZM1025.3,250.3c-3.9-1.5-7.9-2.8-11.9-4.1.4-2,.5-4,.3-6,4.1.6,8.1,1.3,12.1,2.1.3,2.6,0,5.3-.5,7.9h0ZM985.1,326c-2,.3-4.1.6-6.1.9-.5-4.5-1.1-8.9-1.6-13.4,1.8-.2,3.6-.5,5.4-.8,4.7-.8,9.3-1.8,13.8-3.2,1.3,4.2,2.6,8.5,3.8,13-5.1,1.5-10.2,2.7-15.4,3.5h0ZM1000.6,323.1c1.2,4.2,2.4,8.6,3.5,13-5.4,1.6-10.9,2.8-16.5,3.8-2.3.4-4.6.7-6.9,1-.6-4.4-1.1-8.8-1.7-13.3,2-.2,4.1-.5,6.1-.9,5.2-.9,10.3-2.1,15.4-3.5h.1ZM982.7,311.9c-1.8.3-3.6.6-5.4.8-.5-4.5-1-8.9-1.4-13.3,1.5-.2,3-.4,4.5-.6,4-.7,8-1.6,11.9-2.7,1.4,4.1,2.7,8.4,4.1,12.8-4.5,1.3-9.1,2.4-13.7,3.2h0v-.2ZM998.3,237.9c-4.7-.2-9.5-.2-14.2,0v-.2c0-.3,0-.6-.2-.9,4.6-.9,9.1-1.5,13.6-1.9.4.9.7,1.9.9,2.8h0v.2h0ZM998.1,242.5c-4.7-.9-9.4-1.6-14.2-2.2,0-.5.2-.9.2-1.4,4.8-.2,9.5-.2,14.3,0,0,1.2,0,2.4-.3,3.6h0ZM984.5,271.4c-1.6-4.1-3.1-8.1-4.6-11.8,2-.6,3.9-1.4,5.8-2.3,2.6,3.3,5.2,6.8,7.8,10.5-2.9,1.5-5.9,2.7-8.9,3.6h0ZM993.8,268.4c2.2,3.2,4.4,6.5,6.6,10-3.7,1.9-7.6,3.5-11.7,4.7-1.4-3.8-2.7-7.5-4-11,3.1-1,6.1-2.2,9.1-3.7h0ZM970.4,249.5c.2,3.6.5,7.3.8,11.2-2,.2-4.1.2-6.1.1,1-3.9,1.9-7.7,3-11.2.8,0,1.5,0,2.3-.1h0ZM971.7,249.3c.8-.1,1.6-.3,2.4-.6,1.5,3.3,3,6.8,4.5,10.5-1.5.4-3,.8-4.6,1.1-.6,0-1.1.1-1.6.2-.3-3.9-.5-7.7-.8-11.3h0ZM974.2,261c1.6-.3,3.2-.6,4.7-1.1,1.5,3.7,3.1,7.6,4.7,11.8-2.4.7-4.8,1.3-7.3,1.7-1,.2-1.9.3-2.9.4-.4-4.3-.7-8.5-1-12.5.6,0,1.1-.1,1.7-.2h0ZM979.6,259c-1.5-3.7-3-7.3-4.5-10.6.8-.3,1.6-.6,2.3-1,2.6,2.9,5.2,6,7.8,9.3-1.8.9-3.7,1.7-5.6,2.3h0ZM978.3,246.9c.6-.4,1.2-.8,1.8-1.2,3.6,2.2,7.3,4.7,10.9,7.3-1.5,1.2-3.1,2.3-4.8,3.2-2.6-3.3-5.2-6.4-7.8-9.3h-.1ZM981,245c.4-.4.7-.7,1.1-1.1,3.2,1,6.5,2.2,9.8,3.5,1.1.4,2.2.9,3.4,1.4-.8,1.1-1.7,2.1-2.7,3-.2.2-.4.3-.6.5-3.6-2.6-7.2-5.1-10.9-7.3h0ZM967,249.6c-1,3.5-2,7.3-2.9,11.2-1.9-.2-3.8-.5-5.7-.9,2-3.7,4-7.2,6.1-10.6.8.2,1.7.3,2.5.3h0ZM963.9,261.5c-1,4-1.9,8.2-2.7,12.5-3-.3-6.1-.8-9-1.6,1.9-4.1,3.8-8.1,5.9-12,1.9.5,3.9.8,5.9,1h-.1ZM965,261.5h2.3c1.3,0,2.7,0,4-.2.3,4,.7,8.2,1,12.5-3.3.3-6.7.4-10.1.2.8-4.4,1.8-8.6,2.7-12.6h0ZM966.1,274.9c2.1,0,4.2-.1,6.2-.3.3,3.8.7,7.7,1.1,11.6-4.4.5-8.9.6-13.4.3.6-4,1.3-7.9,2-11.7,1.3,0,2.7.2,4,.2h.1ZM973.5,274.5c1-.1,2-.3,2.9-.4,2.5-.4,4.9-1,7.4-1.7,1.3,3.5,2.7,7.2,4.1,11-3.2.9-6.4,1.7-9.6,2.2-1.2.2-2.5.4-3.7.5-.4-4-.7-7.9-1.1-11.7h0ZM978.4,286.2c3.3-.5,6.5-1.3,9.7-2.2,1.3,3.7,2.6,7.5,4,11.4-3.9,1.1-7.8,2-11.8,2.7-1.5.2-3,.4-4.4.6-.4-4.1-.8-8.1-1.2-12,1.2-.2,2.5-.3,3.8-.6h0ZM989,283.7c4-1.2,8-2.8,11.8-4.8.5.8,1,1.6,1.6,2.5,1.7,2.7,3.3,5.4,4.8,8.1-4.6,2.3-9.3,4.2-14.2,5.6-1.3-3.9-2.6-7.8-4-11.5h0ZM1003.2,280.8l-1.5-2.4c3.8-2,7.3-4.4,10.6-7.1,3,3,6,6.1,8.8,9.3-4,3.3-8.4,6.1-13,8.4-1.6-2.8-3.2-5.5-4.9-8.2h0ZM1001.4,277.8c-2.2-3.5-4.4-6.8-6.6-9.9,2.9-1.5,5.6-3.3,8-5.4,3.1,2.7,6.1,5.4,9,8.3-3.2,2.7-6.8,5-10.5,7h0ZM994.4,267.3c-2.6-3.7-5.2-7.2-7.8-10.5,1.8-1,3.4-2.1,5-3.4,3.6,2.7,7.2,5.6,10.7,8.6-2.5,2-5.1,3.8-7.9,5.3ZM992.4,252.7c.2-.2.4-.3.5-.4,1-1,2-2.1,2.9-3.2,4.2,1.8,8.5,3.9,12.8,6.3-1.6,2.2-3.4,4.2-5.4,6-3.5-3-7.1-5.9-10.7-8.6h0ZM996.4,248.1c.9-1.4,1.6-2.8,2.1-4.4,4.7.9,9.4,2.1,14,3.4-.7,2.6-1.8,5-3.3,7.3-4.3-2.4-8.6-4.5-12.8-6.3ZM995.8,247.9c-1.2-.5-2.4-1-3.6-1.5-3.2-1.3-6.3-2.4-9.5-3.4.3-.5.6-1,.8-1.5,4.8.5,9.6,1.2,14.3,2.1-.5,1.5-1.2,2.9-2,4.2h0ZM956.3,242.8c0,.4.3.9.5,1.3-4.1,1.7-8.1,3.6-12.1,5.6-.4-.9-.7-1.9-.9-2.9v-.5c3.2-1.1,6.4-2,9.7-2.8.9-.2,1.9-.4,2.8-.7h0ZM957.1,244.7c.3.4.5.8.8,1.1-3.7,2.3-7.4,4.8-11,7.4-.8-.9-1.5-1.9-2-3,4-2.1,8.1-3.9,12.2-5.6h0ZM958.7,246.6c.6.5,1.2.9,1.9,1.3-3,2.9-6,6.1-8.8,9.3-1.5-.9-2.9-1.9-4.1-3.1,3.6-2.7,7.4-5.2,11-7.5h0ZM961.7,248.4c.5.2,1.1.4,1.7.6-2.1,3.4-4.1,6.9-6.1,10.5-1.2-.3-2.3-.8-3.5-1.3-.4-.2-.7-.4-1-.5,2.9-3.3,5.9-6.4,8.9-9.3h0ZM953.6,258.8c1.1.5,2.2.9,3.4,1.3-2,3.8-4,7.8-5.8,12-1.8-.5-3.5-1.2-5.2-1.9-.8-.4-1.6-.7-2.3-1.1,2.8-3.8,5.7-7.4,8.7-10.8l1.2.6h0ZM945.7,270.8c1.7.7,3.4,1.4,5.2,1.9-1.6,3.7-3.2,7.4-4.6,11.3-2.5-.7-5-1.6-7.3-2.7-.9-.4-1.8-.9-2.7-1.3,2.2-3.6,4.6-7,7.1-10.4l2.4,1.2h-.1ZM951.9,273c3,.8,6.1,1.4,9.2,1.6-.7,3.8-1.4,7.7-2,11.7-4-.3-7.9-1-11.8-2.1,1.5-3.9,3-7.6,4.7-11.3h-.1ZM958.9,287c-.6,4-1.2,8-1.7,12.2-4.9-.3-9.7-1.1-14.4-2.3,1.3-4.1,2.6-8.1,4.1-12,3.9,1.1,7.9,1.8,12,2.1h0ZM960,287.1c1.7.1,3.4.2,5.2.2,2.8,0,5.6-.2,8.3-.5.4,4,.8,8,1.2,12-5.4.6-10.9.8-16.4.4.5-4.2,1-8.3,1.7-12.2h0ZM963.9,300.2c3.6,0,7.3-.2,10.9-.6.5,4.4,1,8.9,1.5,13.3-6.4.7-12.9.9-19.3.5.4-4.6.8-9,1.3-13.4,1.9,0,3.8.2,5.7.2h-.1ZM993.1,295.8c4.9-1.5,9.7-3.4,14.4-5.7,2.3,3.9,4.4,7.8,6.5,11.8-5.4,2.7-11,4.9-16.8,6.7-1.4-4.4-2.7-8.7-4.1-12.8h0ZM1008.5,289.6c4.6-2.4,9-5.2,13.1-8.5,2.8,3.2,5.7,6.7,8.6,10.5-4.7,3.8-9.8,7.1-15.2,9.8-2.1-4-4.3-7.9-6.6-11.8h.1ZM1022.4,280.4c.7-.6,1.4-1.2,2.1-1.8,2.6-2.4,5-5,7.1-7.9,3.5,2.8,6.9,5.8,10.2,8.9-3.1,4.2-6.7,8-10.8,11.3-2.9-3.9-5.8-7.4-8.6-10.6h0ZM1024,278.1c-.7.6-1.4,1.2-2.1,1.8-2.8-3.2-5.8-6.3-8.8-9.3.5-.4,1-.9,1.5-1.4,2.2-2,4.1-4.3,5.8-6.7,3.6,2.4,7.1,5,10.6,7.7-2.1,2.8-4.5,5.4-7.1,7.8h0ZM1014.2,268.7c-.5.5-1,.9-1.5,1.4-2.9-2.9-6-5.7-9-8.4,2.1-1.8,3.9-3.9,5.5-6.1,3.6,2,7.2,4.2,10.8,6.5-1.7,2.4-3.6,4.6-5.7,6.5h0ZM1009.8,254.8c1.5-2.3,2.6-4.8,3.3-7.4,4.1,1.2,8.1,2.6,11.9,4.1-.9,3.5-2.5,6.8-4.5,9.8-3.6-2.4-7.2-4.5-10.7-6.5h0ZM1012.7,246.1c-4.5-1.3-9.2-2.5-13.9-3.4.3-1.2.4-2.5.3-3.7,4.7.2,9.3.6,13.9,1.2.2,1.9,0,3.9-.3,5.8h0ZM999,237.9v-.3c-.2-1-.4-1.9-.8-2.8,4.4-.4,8.8-.5,13.1-.5.7,1.5,1.2,3.1,1.5,4.8-4.6-.6-9.2-1-13.8-1.2ZM996.8,233.6c-4.5.5-9,1.2-13.4,2.2-.2-.4-.4-.7-.7-1,4-1.6,8-2.9,12-4,.8.9,1.5,1.8,2.1,2.8h0ZM982,233.9c-.4-.4-.8-.7-1.2-1,3-2,6.2-3.9,9.5-5.6,1.3.7,2.5,1.6,3.6,2.6-3.9,1.1-7.9,2.4-11.9,4h0ZM979.7,232.3c-.6-.4-1.3-.6-2-.9,2-2.3,4.2-4.4,6.4-6.5,1.4.4,2.7.9,4.1,1.5.3.1.6.3.8.4-3.2,1.7-6.3,3.5-9.3,5.5h0ZM976.5,231c-.6-.2-1.3-.3-1.9-.4,1-2.5,2.1-4.8,3.1-6.9,1.7.1,3.4.4,5.1.8-2.2,2-4.3,4.2-6.3,6.4h0ZM973.5,230.5h-2.7v-6.6c1.3-.1,2.7-.2,4-.2h1.8c-1,2-2,4.3-3,6.8h0ZM969.6,230.6c-.4,0-.7,0-1.1.2-.6,0-1.1.2-1.7.4-1.1-2.2-2.2-4.1-3.2-5.9,1.4-.4,2.9-.7,4.4-1,.6,0,1.1-.1,1.7-.2v6.6h-.1ZM965.7,231.4c-.9.3-1.8.6-2.7,1.1-2.1-1.6-4.2-3.1-6.4-4.5,1.9-1,3.9-1.8,5.9-2.4,1,1.7,2.1,3.7,3.2,5.8h0ZM962,233c-.7.4-1.4.9-2.1,1.4-2.9-1.1-5.8-2.1-8.6-2.9h-.2c1.4-1.1,2.8-2.1,4.4-3,2.3,1.4,4.4,2.9,6.5,4.5h0ZM956.7,238.4c-.2.4-.3.9-.5,1.3-4.1.2-8.1.7-12,1.2.3-1.1.8-2.2,1.4-3.2,3.7,0,7.4.3,11.1.7ZM956.1,240.8v.9c-1,.2-2,.4-2.9.7-3.3.8-6.4,1.8-9.5,2.8,0-1.1,0-2.1.3-3.2,3.9-.6,8-1,12.2-1.3h0ZM943.1,246.5v.4c.2,1.1.5,2.1.9,3.1-4.2,2.2-8.2,4.5-12.1,7-.5-1.3-.9-2.6-1.1-4,0-.5,0-1-.2-1.5,4.1-1.9,8.2-3.5,12.5-5h0ZM944.3,250.6c.5,1.1,1.2,2.1,2,3.1-3.7,2.8-7.4,5.8-10.9,8.9-1.3-1.5-2.4-3.2-3.2-4.9,4-2.6,8-4.9,12.1-7.1h0ZM947.1,254.5c1.3,1.3,2.7,2.4,4.2,3.2-3,3.4-5.9,7-8.7,10.8-2.4-1.4-4.6-3.1-6.5-5.1,3.6-3.2,7.3-6.2,11-9h0ZM942.3,269.1c-2.5,3.4-4.8,6.8-7.1,10.4-3.2-1.8-6.1-4-8.7-6.6,2.9-3.2,6-6.1,9.1-8.9,1.9,2,4.2,3.8,6.6,5.1h.1ZM934.8,280c-2.3,3.7-4.5,7.5-6.6,11.4-4-2.1-7.6-4.7-10.8-7.8,2.7-3.6,5.6-7,8.6-10.2,2.6,2.6,5.6,4.9,8.8,6.6h0ZM935.8,280.6c.9.5,1.8.9,2.8,1.4,2.4,1.1,4.8,2,7.4,2.7-1.5,3.9-2.9,7.9-4.1,12-4.3-1.2-8.6-2.7-12.6-4.8,2-3.9,4.2-7.7,6.5-11.4h0ZM941.6,297.3c-1.3,4.3-2.5,8.6-3.6,13-5.2-1.4-10.2-3.3-14.9-5.7,1.3-3,2.6-5.8,3.9-8.4.6-1.3,1.3-2.5,1.9-3.7,4.1,2,8.3,3.7,12.7,4.8h0ZM942.7,297.6c4.8,1.2,9.6,2,14.5,2.3-.5,4.4-.9,8.8-1.3,13.4-5.7-.4-11.3-1.3-16.8-2.7,1.1-4.4,2.3-8.8,3.6-13.1h0ZM955.8,314c-.3,4.4-.6,8.9-.8,13.5-6.4-.5-12.7-1.5-18.8-3,.8-4.4,1.7-8.8,2.7-13.1,5.5,1.4,11.2,2.3,16.9,2.7h0ZM956.9,314c2.2.1,4.5.2,6.8.2,4.2,0,8.5-.3,12.7-.7.5,4.5,1.1,9,1.6,13.4-7.2.8-14.5,1-21.8.6.2-4.6.4-9,.8-13.5h0ZM964.6,342.5c5.1,0,10.2-.3,15.3-.9.6,4.3,1.1,8.5,1.7,12.6-8.4.9-16.9,1.2-25.4.6-.2-4.3-.3-8.5-.3-12.7,2.8.2,5.7.3,8.6.3h.1ZM980.8,341.5c2.3-.3,4.6-.6,7-1,5.6-.9,11.1-2.2,16.5-3.8,1.1,4,2.1,8.2,3.1,12.4-5.7,1.6-11.5,2.9-17.3,3.9-2.5.4-5,.8-7.5,1.1-.6-4.1-1.2-8.3-1.7-12.6h0ZM1005.2,336.5c7.4-2.2,14.5-5,21.4-8.4,1.7,4,3.3,7.9,4.8,11.8-7.4,3.7-15.1,6.7-23.1,9-1-4.2-2-8.3-3.1-12.4h0ZM1005,335.8c-1.2-4.4-2.3-8.8-3.6-13,6.6-2,13.1-4.5,19.3-7.7,1.9,4.1,3.8,8.2,5.6,12.3-6.8,3.4-14,6.2-21.3,8.4h0ZM1001.3,322.2c-1.3-4.4-2.5-8.7-3.8-13,5.8-1.7,11.5-4,16.9-6.7,2.1,4,4.1,8,6.1,12.1-6.2,3.1-12.6,5.6-19.2,7.6h0ZM1015.3,302c5.4-2.8,10.5-6.1,15.3-9.9,2.6,3.4,5.2,7,7.7,10.9-5.2,4.2-10.9,7.9-16.9,11-1.9-4.1-4-8.1-6.1-12.1h0ZM1031.5,291.5c4.1-3.3,7.7-7.2,10.9-11.4,3.1,3,6.1,6.1,9,9.5-3.5,4.8-7.6,9.1-12.1,12.8-2.6-3.9-5.1-7.6-7.7-11h-.1ZM1042.9,279.2c3.3-4.5,5.7-9.7,7.1-15.1,1.6,1,3.2,2.1,4.7,3.2,1.8,1.3,3.5,2.6,5.1,4-1.5,6.2-4.2,12.1-7.9,17.3-2.9-3.3-5.9-6.4-9-9.4h0ZM1042.5,278.7c-3.3-3.2-6.7-6.1-10.2-8.9,2.7-3.8,4.7-8,5.9-12.5,3.9,2,7.7,4.1,11.3,6.5-1.4,5.4-3.7,10.5-7,15h0ZM1031.7,269.4c-3.5-2.8-7-5.3-10.6-7.7,2.1-3,3.6-6.4,4.6-10,4.1,1.6,8,3.4,11.8,5.3-1.1,4.5-3.1,8.7-5.8,12.4h0ZM1026.3,241.5v-.7c-.3-1.9-.9-3.8-1.6-5.6,3.6.4,7.2,1,10.6,1.7,1.2,2.4,2.1,5,2.7,7.6-3.8-1.1-7.6-2.2-11.6-3h0ZM1025.5,240.9v.4c-4-.9-8-1.6-12.1-2.1h0c-.3-1.7-.8-3.3-1.5-4.8,4,0,7.9.3,11.8.7.8,1.9,1.4,3.8,1.7,5.8h0ZM1011.2,232.8c-1-1.8-2.2-3.4-3.6-4.8,3.6-.5,7.2-.9,10.8-1,1.8,1.9,3.4,4.1,4.6,6.4-3.9-.4-7.8-.6-11.8-.6h0ZM1006.6,227.1c-1.8-1.6-3.8-3.1-6-4.2,3-1.1,6.1-1.9,9.3-2.4,2.7,1.6,5.2,3.4,7.4,5.6-3.6.1-7.2.5-10.7,1.1h0ZM1005.8,227.2c-3.8.6-7.5,1.5-11.2,2.5-1.1-1.1-2.3-2-3.6-2.7,2.9-1.5,5.8-2.7,8.9-3.8,2.2,1.1,4.2,2.5,6,4.1h-.1ZM989.8,226.3c-.4-.2-.8-.4-1.3-.6-1.2-.5-2.5-1-3.7-1.4,1.9-1.7,3.9-3.2,6-4.7,2.7.7,5.2,1.6,7.7,2.8-3,1.1-5.9,2.4-8.7,3.9h0ZM983.4,224c-1.8-.4-3.6-.7-5.4-.9.9-1.7,1.8-3.4,2.8-5,2.8.2,5.6.6,8.3,1.2-2,1.4-4,3-5.8,4.7h.1ZM969.7,223.3c-.6,0-1.2.1-1.8.2-1.6.3-3.1.6-4.6,1.1-.9-1.6-1.8-3-2.7-4.2,2.2-.6,4.4-1.1,6.6-1.5.9-.1,1.8-.3,2.7-.4,0,1.4-.2,3-.2,4.8h0ZM962.2,224.9c-2.1.7-4.2,1.5-6.2,2.6-1.9-1.1-3.8-2.2-5.8-3.1,3-1.5,6.2-2.8,9.4-3.8.8,1.2,1.7,2.6,2.6,4.2h0ZM954.9,228.1c-1.6.9-3.1,1.9-4.5,3.1-2.7-.7-5.4-1.3-8.2-1.7,2.1-1.6,4.3-3.1,6.7-4.4,2.1.9,4.1,1.9,6,3h0ZM949.4,232c-1.5,1.3-2.8,2.9-3.8,4.5-3.6,0-7.1.1-10.7.5,1.4-1.9,2.9-3.7,4.6-5.3.5-.5,1-.9,1.6-1.3,2.8.4,5.6.9,8.3,1.6h0ZM944.9,237.7c-.6,1.1-1,2.2-1.4,3.3-4.1.6-8,1.4-11.9,2.4.6-1.8,1.4-3.5,2.5-5.1,3.6-.4,7.2-.6,10.8-.6h0ZM930.9,243.5c-3.7,1-7.4,2.1-10.9,3.5.7-2.3,1.7-4.6,2.9-6.7,3.4-.9,6.9-1.5,10.5-2-1,1.6-1.8,3.4-2.4,5.2h0ZM929.9,251.8c0,.4,0,.9.2,1.3.3,1.5.7,2.9,1.3,4.3-3.6,2.3-7.1,4.7-10.4,7.3-.9-1.9-1.5-3.9-1.8-6,0-.4,0-.7,0-1.1,3.5-2.1,7.2-4,10.9-5.8h-.1ZM931.6,258.1c.8,1.8,1.9,3.5,3.3,5-3.1,2.8-6.2,5.8-9.1,9-1.8-2-3.3-4.2-4.5-6.5,3.4-2.7,6.9-5.2,10.4-7.5h-.1ZM925.3,272.5c-3,3.3-5.9,6.7-8.6,10.2-2.4-2.5-4.3-5.3-5.8-8.3,3.2-3,6.5-5.9,9.9-8.5,1.2,2.4,2.7,4.6,4.5,6.6h0ZM917.1,284.1c3.2,3.1,6.9,5.8,10.9,7.9-.7,1.3-1.3,2.5-1.9,3.8-1.3,2.6-2.6,5.4-3.9,8.4-4.6-2.4-8.8-5.4-12.5-9,2.3-3.8,4.8-7.5,7.4-11h0ZM921.9,304.8c-1.6,3.8-3.2,7.9-4.7,12.3-5.1-2.7-9.7-6.1-13.8-10.1,1.8-3.9,3.8-7.6,5.9-11.3,3.7,3.6,8,6.7,12.6,9.1h0ZM922.8,305.3c4.8,2.4,9.8,4.3,15,5.7-1,4.3-1.9,8.7-2.7,13.1-5.9-1.6-11.6-3.7-17.1-6.5,1.5-4.4,3.1-8.5,4.7-12.3h0ZM935.1,324.8c-.7,4.3-1.3,8.7-1.8,13.1-6.6-1.7-12.9-4.2-19-7.3,1.1-4.3,2.3-8.4,3.6-12.3,5.5,2.8,11.2,5,17.2,6.5h0ZM936.1,325.1c6.2,1.6,12.5,2.6,18.9,3-.2,4.4-.2,8.8-.2,13.3-6.9-.5-13.7-1.6-20.4-3.3.4-4.4,1-8.8,1.8-13.1h0ZM954.8,342.2c0,4.2,0,8.4.3,12.7-7.3-.5-14.5-1.6-21.6-3.4,0-4.2.4-8.4.8-12.6,6.7,1.7,13.6,2.8,20.6,3.3h0ZM956.2,355.7c2.9.2,5.9.3,8.9.3,5.5,0,11.1-.3,16.6-.9.6,4.5,1.3,9,2,13.3-8.8,1-17.7,1.2-26.6.6-.4-4.4-.7-8.8-.9-13.2h0ZM966.9,370.1c5.6,0,11.3-.3,16.9-1,.7,4.2,1.3,8.2,2,12.1-9.1,1-18.2,1.2-27.3.5-.5-4-.9-7.9-1.3-11.9,3.2.2,6.5.3,9.7.3h0ZM969.5,383c5.5,0,10.9-.3,16.4-.9.6,3.3,1.1,6.5,1.7,9.4-9.2,1-18.4,1.3-27.6.7-.5-3.2-1-6.4-1.4-9.6,3.6.3,7.3.5,11,.5h-.1ZM988.8,392.2c2.6-.3,5.3-.7,8-1.1,6.2-1,12.4-2.4,18.4-4.2.6,3.2,1.1,6.5,1.6,9.8-6,1.7-12,3.1-18.1,4.1-2.7.4-5.3.8-7.9,1.1-.7-3-1.3-6.3-2-9.7h0ZM996.6,390.3c-2.7.4-5.4.8-8,1.1-.6-3-1.2-6.2-1.7-9.4,2.5-.3,5-.6,7.5-1,6.4-1.1,12.7-2.5,18.9-4.4.6,3.2,1.2,6.4,1.8,9.6-6,1.7-12.2,3.1-18.4,4.2h0ZM994.3,380c-2.5.4-5,.8-7.6,1-.7-3.9-1.3-7.9-2-12.1,2.5-.3,5.1-.6,7.6-1.1,6.2-1,12.3-2.4,18.3-4.2.8,3.9,1.6,7.9,2.4,11.9-6.2,1.9-12.4,3.3-18.8,4.4h0ZM992.2,367.1c-2.5.4-5.1.8-7.6,1.1-.7-4.3-1.3-8.7-2-13.2,2.5-.3,5-.6,7.6-1.1,5.9-1,11.7-2.3,17.4-3.9,1,4.3,2,8.6,2.9,13-6,1.8-12.1,3.2-18.3,4.2h0ZM1008.5,349.7c8-2.3,15.7-5.3,23.2-9,1.6,4.1,3,8.1,4.3,12.1-7.8,4-16,7.4-24.4,9.9-1-4.4-2-8.7-3-13h0ZM1032.6,340.1c6.9-3.5,13.4-7.6,19.4-12.4,1.7,3.6,3.2,7.4,4.7,11.3-6.1,5.1-12.8,9.5-19.8,13.2-1.3-3.9-2.7-8-4.3-12.1h0ZM1032.3,339.4c-1.5-3.9-3.1-7.8-4.8-11.8,6.5-3.3,12.7-7.3,18.4-11.9,2,3.6,3.9,7.4,5.7,11.3-6,4.7-12.5,8.9-19.3,12.4h0ZM1027.2,326.9c-1.8-4.1-3.6-8.2-5.6-12.2,6-3.1,11.7-6.8,17-11,2.3,3.6,4.7,7.4,6.9,11.4-5.7,4.6-11.8,8.5-18.3,11.9h0ZM1039.5,302.9c4.6-3.8,8.7-8.1,12.2-12.8,2.8,3.3,5.5,6.7,8.1,10.3-2.9,3.9-6.2,7.5-9.8,10.8-1.2,1.1-2.4,2.1-3.6,3.1-2.2-4-4.5-7.8-6.9-11.4h0ZM1052.4,289.1c3.8-5.2,6.5-11.1,8-17.4,3.2,2.6,6.2,5.5,9,8.5-1.7,6.9-4.7,13.5-8.9,19.2-2.6-3.6-5.3-7.1-8.1-10.4h0ZM1060.7,270.6c.9-4.5,1-9.2.3-13.8,0-.6-.3-1.3-.4-1.9,2.9,1.5,5.7,3.1,8.4,4.8.4,1.4.8,2.9,1,4.4.8,4.9.7,9.9-.2,14.8-2.8-3-5.8-5.8-9-8.4h-.1ZM1060.3,256.9c.7,4.4.7,8.8-.2,13.2-1.5-1.2-3.1-2.5-4.7-3.6s-3.4-2.3-5.1-3.4c.9-4.2,1-8.5.3-12.7h0c3.1,1.2,6.2,2.6,9.2,4.1.2.8.4,1.6.5,2.4h0ZM1049.9,250.4c.7,4,.6,8.2-.3,12.2-3.6-2.3-7.4-4.4-11.3-6.4.7-3.4.8-6.8.4-10.2,3.8,1.2,7.5,2.5,11.1,4,0,.2,0,.3,0,.5h0ZM1038.6,244.7c-.5-2.7-1.3-5.2-2.5-7.7,3.5.7,6.8,1.6,10.1,2.7,1.6,2.8,2.7,5.8,3.4,8.9-3.6-1.4-7.2-2.7-11-3.9ZM1035.1,235.3c-1.7-2.9-3.8-5.6-6.3-7.9,2.9.3,5.8.9,8.6,1.7,3,2.6,5.5,5.5,7.6,8.8-3.3-1-6.6-1.9-10-2.6h.1ZM1034.2,235.1c-3.5-.7-6.9-1.3-10.4-1.6-1.2-2.4-2.7-4.6-4.5-6.5,2.8,0,5.6,0,8.5.3,2.5,2.3,4.7,4.9,6.5,7.8h0ZM1009.5,219.4c-3.1-1.7-6.3-3.1-9.7-4.1.7-.2,1.4-.4,2.1-.5,4.2.9,8.3,2.3,12.3,4h0c-1.6.2-3.2.4-4.8.6h0ZM1008.5,219.6c-3.1.6-6.2,1.4-9.1,2.5-2.5-1.2-5.1-2.2-7.8-3,2.2-1.5,4.6-2.6,7.1-3.5,3.4,1,6.7,2.3,9.8,4h0ZM990,218.8c-2.9-.7-5.8-1.1-8.7-1.3.4-.6.9-1.2,1.3-1.8.7-1,1.6-1.8,2.6-2.5,3.9.3,7.8.9,11.6,1.9-2.4,1-4.7,2.2-6.8,3.7h0ZM970.7,214.1c-.3,1.2-.6,2.5-.7,3.7-.9.1-1.9.2-2.9.4-2.3.4-4.6.9-6.9,1.6-.8-1.1-1.7-2.2-2.6-3.2,4.3-1.1,8.6-1.9,13-2.5h.1ZM956.5,216.9c.6.4,1.5,1.5,2.7,3.2-3.4,1-6.7,2.4-9.8,4-2.1-.9-4.4-1.6-6.6-2.1,1.1-.6,2.2-1.2,3.4-1.7,3.4-1.3,6.8-2.4,10.3-3.4h0ZM948.1,224.7c-2.4,1.3-4.7,2.9-6.8,4.6-2.9-.4-5.8-.5-8.7-.4,2.7-2.3,5.6-4.3,8.7-6.1,2.3.4,4.6,1,6.8,1.9h0ZM940.2,230.3c-.4.3-.8.6-1.1,1-1.9,1.8-3.6,3.8-5.1,5.9-3.5.4-7,1-10.4,1.8,1.9-3,4.2-5.7,6.8-8.2.3-.2.5-.5.8-.7,3-.2,6-.2,9,.2h0ZM930,230.3c-2.8,2.6-5.3,5.6-7.3,8.9-2.4.6-4.7,1.3-6.9,2.1,3-3.9,6.4-7.4,10.3-10.4,1.3-.4,2.7-.6,4-.8h0v.2ZM921.9,240.6c-1.2,2.1-2.1,4.4-2.8,6.7-3,1.2-6,2.5-8.9,4,1.1-3,2.6-5.8,4.5-8.4,2.4-.9,4.8-1.7,7.3-2.4h0ZM918.3,257.9c0,.3,0,.6,0,.8.4,2.2,1,4.3,1.9,6.3-3.5,2.7-6.8,5.5-9.9,8.4-.9-2.1-1.6-4.3-1.9-6.6,0-.7-.2-1.3-.3-2,3.2-2.5,6.6-4.8,10.1-6.9h0ZM907.8,267c.4,2.4,1.1,4.7,2.1,6.9-1.7,1.6-3.4,3.2-5,4.9-1.3,1.3-2.5,2.7-3.7,4-1-2.3-1.7-4.7-2.1-7.2,0-.8-.2-1.7-.3-2.5,2.8-2.7,5.7-5.3,8.8-7.7,0,.5,0,1.1.2,1.6h0ZM905.7,279.6c1.6-1.6,3.1-3.2,4.7-4.7,1.5,3.1,3.5,5.9,5.9,8.4-2.7,3.5-5.2,7.2-7.5,11-3-3-5.4-6.5-7.2-10.4,1.3-1.4,2.6-2.9,4-4.3h0ZM908.5,294.9c-2.2,3.6-4.2,7.4-6,11.2-3.6-3.7-6.5-7.9-8.5-12.6,2.2-3.1,4.6-6.1,7.2-9,1.8,3.9,4.3,7.4,7.3,10.4h0ZM902.2,306.8c-1.7,3.8-3.3,7.6-4.6,11.6-4.2-4.3-7.6-9.3-9.9-14.8,1.8-3.2,3.7-6.3,5.8-9.3,2.1,4.7,5,9,8.6,12.6h.1ZM903,307.6c4.1,4,8.8,7.4,13.9,10.1-1.3,3.9-2.5,8-3.6,12.3-5.4-2.9-10.4-6.5-14.8-10.8,1.3-3.9,2.8-7.8,4.6-11.6h-.1ZM913.2,330.8c-1,3.9-1.8,7.9-2.5,12.1-5.6-2.9-10.8-6.6-15.5-11,.8-4,1.8-8,3-11.9,4.5,4.2,9.5,7.9,14.9,10.7h0ZM914.2,331.3c6.1,3.1,12.5,5.6,19.1,7.3-.4,4.2-.7,8.4-.8,12.6-7.2-1.8-14.1-4.4-20.7-7.8.7-4.2,1.5-8.2,2.4-12.1h0ZM932.4,352c0,4.3,0,8.6,0,12.9-5.7-1.5-11.3-3.5-16.7-6-1.9-.9-3.8-1.8-5.6-2.8.3-4.1.8-8,1.4-11.9,6.6,3.4,13.6,6,20.8,7.8h0ZM915.4,359.7c5.5,2.5,11.2,4.5,17.1,6.1.2,3.9.5,7.7,1,11.5-4.9-1.4-9.6-3-14.2-5-3.3-1.4-6.5-3.1-9.6-4.9,0-3.5,0-7,.3-10.4,1.7.9,3.5,1.8,5.3,2.7h.1ZM933.7,366c7.4,1.9,14.8,3.1,22.4,3.6.3,3.9.8,7.9,1.3,11.9-7.6-.6-15.2-2-22.6-4-.5-3.8-.8-7.7-1-11.5h-.1ZM957.4,382.5c.4,3.2.9,6.4,1.4,9.6-7.5-.5-15-1.7-22.3-3.5-.7-3.4-1.3-6.7-1.7-10.1,7.4,2,15,3.3,22.6,3.9h0ZM959,393c.5,3.2,1.1,6.4,1.7,9.6-7.3-.5-14.5-1.7-21.6-3.4-.9-3.2-1.7-6.4-2.4-9.7,7.3,1.7,14.8,2.9,22.3,3.4h0ZM960.9,403.5c.3,1.6.6,3.1,1,4.7.2,1.1.6,2.2.8,3.3-7-.5-13.9-1.7-20.7-3.3-1-2.6-1.8-5.2-2.6-7.9,7.1,1.7,14.3,2.7,21.5,3.3h0ZM963,412.3c.7,2.2,1.5,4.3,2.4,6.4-6.8-.6-13.6-1.7-20.2-3.4-.6-1-1.2-2.1-1.6-3.2-.4-1-.7-2-1.1-3,6.8,1.6,13.7,2.6,20.6,3.1h-.1ZM964.2,412.4c3.3.2,6.6.3,9.9.3,6,0,11.9-.4,17.9-1.1.6,2.3,1.2,4.5,1.8,6.5-9,1.1-18.1,1.2-27.2.6-.9-2.1-1.7-4.2-2.4-6.4h0ZM993.1,411.6c2.3-.3,4.6-.6,6.9-1,6.2-1,12.3-2.4,18.3-4.2.3,2.2.6,4.4.9,6.6-6,1.8-12.1,3.2-18.2,4.3-2,.3-4.1.6-6.1.9-.6-2.1-1.2-4.3-1.8-6.5h0ZM999.9,409.8c-2.3.4-4.7.7-7,1-.3-1.2-.6-2.4-.9-3.6-.3-1.4-.7-2.9-1-4.4,2.6-.3,5.3-.7,7.9-1.1,6.1-1,12.2-2.4,18.1-4.1.4,2.6.8,5.3,1.2,8-6,1.8-12.1,3.2-18.3,4.2h0ZM1018,397.3c8.9-2.6,17.5-6,25.8-10.2.3,2.8.5,5.5.6,7.9-8,4.2-16.5,7.6-25.1,10.3-.4-2.7-.8-5.4-1.2-8h-.1ZM1016.1,385.8c-.6-3.2-1.2-6.4-1.8-9.6,8.8-2.7,17.3-6.2,25.4-10.6.9,3.4,1.7,6.7,2.3,9.9-8.3,4.2-17,7.6-25.9,10.2h0ZM1014.1,375.4c-.8-4-1.6-8-2.5-11.9,8.5-2.5,16.7-5.8,24.6-9.9,1.2,3.8,2.3,7.5,3.3,11.1-8.1,4.4-16.6,7.9-25.4,10.6h0ZM1037.2,353c7.1-3.7,13.7-8.1,19.9-13.2,1.3,3.3,2.4,6.7,3.5,10.3-6.2,5.3-12.9,10-20.1,14-.9-3.6-2.1-7.3-3.3-11.1h0ZM1057.9,339.1c1.5-1.3,3.1-2.6,4.5-4,3.8-3.6,7.3-7.5,10.4-11.7,1.3,3,2.5,6,3.6,9.2-4.3,6.2-9.3,11.8-15,16.8-1.1-3.5-2.3-6.9-3.5-10.3ZM1061.9,334.5c-1.4,1.3-2.8,2.5-4.2,3.8-1.5-3.9-3.1-7.6-4.7-11.2,1.6-1.3,3.1-2.6,4.5-3.9,3.6-3.3,7-6.9,9.9-10.8,1.8,3.3,3.5,6.6,5.1,10.1-3.2,4.3-6.7,8.4-10.6,12.1h0ZM1056.9,322.6c-1.4,1.3-2.9,2.5-4.4,3.7-1.8-3.9-3.8-7.7-5.8-11.3,1.3-1.1,2.5-2.1,3.8-3.3,3.6-3.3,6.8-6.9,9.7-10.7,2.4,3.4,4.6,6.9,6.7,10.6-3,3.9-6.4,7.6-10.1,10.9h.1ZM1061,300.1c4.2-5.8,7.3-12.3,9-19.2,2.7,2.9,5.2,6.1,7.5,9.4-1.7,7-5,13.8-9.8,20.4-2.1-3.7-4.3-7.2-6.7-10.6h0ZM1070.3,279.6c1.1-5.1,1.2-10.4.4-15.6-.2-1.2-.5-2.5-.8-3.7,2.2,1.4,4.3,2.9,6.3,4.4.9,2.5,1.6,5.2,2.1,7.8.9,5.4.8,11-.4,16.3-2.3-3.2-4.8-6.3-7.6-9.3h0ZM1069.4,258.7c-1-3.2-2.3-6.2-4-9.1,3.6,4.1,6.9,8.5,9.9,13.1-1.9-1.4-3.9-2.7-5.9-4h0ZM1060.2,253.5c-.9-3.6-2.4-7-4.3-10.1,2.2,1,4.4,2,6.5,3.1,2.6,3.5,4.6,7.5,5.9,11.6-2.7-1.6-5.4-3.2-8.2-4.6h0ZM1059.4,253.1c-2.9-1.5-6-2.9-9.1-4.1-.7-3.1-1.7-6.1-3.2-8.9,2.7.9,5.3,1.8,7.8,2.9,2,3.2,3.5,6.6,4.5,10.2h0ZM1046.1,238.3c-2-3.2-4.4-6.2-7.2-8.7,2.3.7,4.4,1.6,6.5,2.6,3.1,2.6,5.9,5.6,8.2,8.9-2.5-1-5-2-7.6-2.8h0ZM1037,227.9c-1.7-1.4-3.4-2.7-5.3-3.9,3.2,1.6,6.3,3.3,9.3,5.1-1.3-.4-2.6-.9-4-1.2h0ZM1035.5,227.5c-2.6-.6-5.3-1-8-1.3-2.9-2.5-6.2-4.7-9.6-6.4,1.7,0,3.4.2,5,.4.9.4,1.9.7,2.8,1.1,3.5,1.7,6.8,3.8,9.8,6.2h0ZM1015.7,218.7c-.4-.2-.9-.4-1.3-.6-2.1-.9-4.3-1.7-6.5-2.4,3.7.8,7.3,1.8,10.9,3h-3.1ZM999.4,214.2c-.5.1-1,.3-1.5.5-1.7-.5-3.4-.9-5.2-1.2,1.9.1,3.9.3,5.8.6.3,0,.6.1.9.2h0ZM939.5,223.1c-2.8,1.7-5.5,3.7-8,5.9-1.1,0-2.2.2-3.3.4.8-.6,1.6-1.1,2.4-1.7,2.9-1.7,5.9-3.2,9-4.7h-.1ZM913.5,243.4c-1.7,2.6-3.2,5.4-4.2,8.4-2.7,1.5-5.3,3.1-7.9,4.9,1.5-3.6,3.4-7.1,5.8-10.2,2-1.1,4.1-2.1,6.3-3h0ZM908.8,253.3c-1.1,3.5-1.5,7.1-1.3,10.8-3.1,2.4-6,4.9-8.8,7.6-.2-4.5.5-8.9,2-13.1,2.6-1.9,5.3-3.7,8.1-5.2h0ZM898.2,273.7c0,.7,0,1.4.3,2,.4,2.6,1.2,5.2,2.3,7.7-2.6,2.9-5,5.9-7.2,8.9-.9-2.3-1.6-4.8-2-7.3-.2-1.2-.3-2.4-.4-3.6,2.2-2.7,4.6-5.3,7-7.8h0ZM890.9,285.2c.5,2.7,1.2,5.3,2.2,7.8-2.1,3-4.1,6-5.8,9.2-.9-2.4-1.5-4.8-1.9-7.3-.3-1.6-.4-3.2-.5-4.8,1.8-2.7,3.7-5.3,5.7-7.9,0,1,.2,2,.3,2.9h0ZM887.3,304.4c2.4,5.5,5.8,10.6,10.1,14.8-1.3,3.9-2.3,7.8-3.1,11.8-4.9-4.8-8.8-10.6-11.4-16.9,1.3-3.3,2.7-6.6,4.4-9.7h0ZM910.5,343.7c-.6,3.8-1.1,7.8-1.4,11.8-5.7-3.1-10.9-6.9-15.6-11.4.3-3.8.8-7.6,1.5-11.3,4.7,4.3,9.9,7.9,15.5,10.9ZM909,356.4c-.2,3.4-.4,6.8-.4,10.4-5.6-3.3-10.8-7.3-15.5-11.8,0-3.3,0-6.6.2-9.7,4.7,4.4,10,8.2,15.6,11.2h.1ZM909.8,368.4c3,1.7,6.1,3.2,9.2,4.6,4.8,2.1,9.7,3.8,14.7,5.2.4,3.4,1,6.8,1.7,10.1-8.7-2.2-17.2-5.4-25.1-9.7-.3-3.4-.5-6.8-.5-10.2h0ZM935.5,389.3c.7,3.3,1.5,6.5,2.4,9.7-9.3-2.3-18.2-5.8-26.5-10.5-.5-3-.8-5.9-1.1-8.9,8,4.3,16.4,7.5,25.2,9.6h0ZM938.2,399.9c.8,2.7,1.6,5.3,2.5,7.9-4.6-1.2-9.1-2.6-13.5-4.4s-8.7-3.8-12.8-6.3c-1.2-2.4-2.1-4.9-2.8-7.6,8.3,4.6,17.3,8.1,26.5,10.3h0ZM941.1,408.8c.5,1.2.9,2.5,1.4,3.7.3.8.7,1.6,1.2,2.4-8.9-2.3-17.4-5.9-25.2-10.6-1.2-1.8-2.3-3.7-3.3-5.6,8.1,4.5,16.9,7.9,25.9,10.1h0ZM944.2,415.9c.9,1.5,1.8,2.9,2.9,4.2-9.2-2.6-17.9-6.6-25.9-11.9-.6-.7-1.2-1.5-1.7-2.2,7.7,4.4,16,7.8,24.7,10h0ZM948,421.1c.3.4.7.7,1,1.1-1.9-.7-3.8-1.6-5.6-2.4,1.5.5,3,1,4.6,1.4h0ZM951.9,423.3c-.6-.5-1.2-1-1.8-1.6,5.9,1.5,12,2.6,18.1,3.1.4.7.7,1.4,1.1,2.2-5.9-.7-11.7-1.9-17.3-3.7h0ZM949.1,420.6c-1.2-1.3-2.4-2.8-3.4-4.3,6.6,1.6,13.3,2.7,20,3.2.7,1.5,1.4,3,2.1,4.5-6.3-.6-12.6-1.7-18.7-3.3h0ZM966.9,419.6c3.4.2,6.7.4,10.1.4,5.7,0,11.3-.3,16.9-1,.5,1.7,1,3.2,1.5,4.8-8.8,1-17.6,1.1-26.4.4-.7-1.4-1.4-2.9-2.1-4.5h0ZM995.1,418.8c2-.2,4-.5,6-.9,6.2-1,12.2-2.4,18.2-4.2.2,1.6.4,3.3.6,4.9-5.7,1.7-11.5,3.1-17.4,4.1-2,.3-4,.6-5.9.8-.5-1.5-1-3.1-1.5-4.8h0ZM1020.2,412.6c-.3-2.2-.6-4.4-.9-6.6,8.7-2.6,17.1-5.9,25.1-10.1,0,2.2,0,4.4-.2,6.7-7.7,4.1-15.7,7.4-24,10h0ZM1045.4,394.3c0-2.4-.3-5-.7-7.9,7.5-3.9,14.6-8.5,21.1-13.8.4,2.3.7,4.6,1,6.9-6.6,5.7-13.8,10.6-21.4,14.7h0ZM1044.7,385.6c-.2-1.6-.4-3.3-.7-5-.2-1.5-.5-3.1-.8-4.7,7.3-3.8,14.2-8.3,20.7-13.4.7,3.1,1.3,6.2,1.9,9.4-6.5,5.3-13.5,10-21,13.8h0ZM1043,374.9c-.6-3.2-1.4-6.5-2.3-9.9,7.2-3.9,13.9-8.6,20.1-14,1,3.4,2,6.9,2.8,10.4-6.4,5.2-13.3,9.7-20.6,13.5h0ZM1061.7,350.3c5.7-5,10.7-10.6,15-16.7,1.2,3.6,2.3,7.3,3.2,11.1-4.5,6-9.6,11.4-15.4,16.1-.9-3.6-1.8-7-2.8-10.4h0ZM1077.6,332.4c4.7-6.9,8.1-14.6,10.1-22.7,1.4,3.9,2.5,7.8,3.3,11.9-1.8,7.5-5.2,14.9-10.1,21.8-.9-3.7-2-7.4-3.2-11h-.1ZM1077.2,331.3c-1.1-3.1-2.3-6.1-3.6-9,4.7-6.5,8.2-13.8,10.2-21.6,1.2,2.4,2.3,4.9,3.3,7.5-1.8,8.3-5.2,16.1-9.9,23.2h0ZM1073.2,321.4c-1.6-3.4-3.3-6.8-5.1-10,4.9-6.6,8.2-13.4,10-20.3,1.8,2.7,3.5,5.5,5.1,8.5-1.9,7.9-5.3,15.3-10,21.9h0ZM1054.9,241.6c-1.7-2.6-3.7-4.9-5.9-7.1,3.9,2.9,7.6,6.1,11,9.5-1.7-.9-3.4-1.7-5.2-2.4h0ZM905.3,248c-2,2.9-3.6,6.1-4.9,9.4-2,1.4-3.8,3-5.6,4.6.4-.8.8-1.6,1.2-2.5,2.8-4.1,5.9-7.9,9.3-11.6h0ZM893.5,263.4h0ZM892.5,266c-1.6,4.7-2.3,9.7-2.1,14.6-2,2.4-3.9,5-5.7,7.6,0-4,.6-7.9,1.7-11.8,1.2-2.7,2.6-5.4,4-8,.7-.8,1.4-1.7,2.1-2.5h0ZM878.7,300.9c.2-.3.3-.7.5-1,0,1.9.2,3.8.6,5.7.5,2.7,1.2,5.4,2.1,8-1,2.8-1.9,5.6-2.6,8.5-.8-2.4-1.4-4.8-1.8-7.3,0-.7-.2-1.5-.3-2.2.3-3.9.8-7.9,1.5-11.7ZM882.5,315.1c2.7,6.3,6.6,12,11.6,16.8-.7,3.7-1.3,7.5-1.6,11.2-5.5-5.4-9.8-11.9-12.6-19.1.6-3,1.5-6,2.5-8.9h0ZM892.4,344.2c-.2,3.2-.3,6.4-.3,9.6-5.9-6-10.5-13.1-13.4-21,.2-2.4.5-4.9.9-7.3,2.9,7,7.3,13.4,12.8,18.6h0ZM892.1,355.1c0,3.5.3,7,.8,10.6-7.2-7.3-12.1-15.9-14.1-25.4,0-1.7,0-3.5,0-5.3,3.1,7.5,7.7,14.4,13.5,20.1h-.1ZM886.5,364.8h0c-.8-1.3-1.4-2.5-2.1-3.8-1.4-3.4-2.6-6.9-3.6-10.5,0-.4-.2-.8-.2-1.3,2.9,6.7,7.1,12.7,12.4,17.8.3,2,.6,4,.9,6,0,.8.3,1.5.5,2.3-3-3.2-5.7-6.7-7.9-10.6h0ZM895,372.8c-.3-1.5-.5-3-.7-4.5,4.5,4.1,9.5,7.7,14.9,10.7.3,2.9.6,5.9,1,8.8-5.2-3.1-10.1-6.8-14.4-11-.3-1.3-.6-2.6-.8-3.9h0ZM910.4,388.9c.5,2.5,1.3,5,2.4,7.3-5.6-3.4-10.8-7.7-15.2-12.5-.5-1.8-1-3.6-1.4-5.4,4.3,4.1,9.1,7.6,14.2,10.5h0ZM913.5,397.7c.8,1.7,1.8,3.5,2.8,5.2-2.5-1.7-5-3.5-7.3-5.5-1.1-.9-2.1-1.9-3.1-2.8-2.4-2.6-4.7-5.3-6.9-8.1,4.3,4.3,9.2,8.1,14.4,11.2h0ZM917.3,404.5c.3.4.6.9.9,1.3-1.6-1.2-3.1-2.5-4.6-3.8,1.2.9,2.4,1.7,3.7,2.5h0ZM970.4,426.8c-.3-.6-.6-1.3-.9-1.9,3.6.3,7.3.5,10.9.5,5.1,0,10.2-.3,15.3-.9.3.9.6,1.7.9,2.6-8.6,1-17.4,1-26,0v-.3h-.2ZM996.8,424.4c1.9-.2,3.9-.5,5.8-.8,5.9-1,11.7-2.3,17.4-4.1,0,.8.2,1.6.3,2.4-5.7,1.9-11.6,3.3-17.6,4.3-1.7.3-3.4.5-5.1.7-.3-.8-.6-1.7-.9-2.6h0ZM1002.9,427c5.9-1,11.8-2.4,17.5-4.3h0c-7.2,2.6-14.7,4.3-22.3,5.3v-.3c1.5-.2,3.2-.4,4.8-.7h0ZM1021.5,422.3l.8-.3c-.3.1-.5.2-.8.3h0ZM1061.3,396.8c-5.2,4.4-10.8,8.3-16.8,11.6.4-1.8.7-3.6.8-5.4,7.8-4.2,15.1-9.4,21.7-15.4,0,1.3-.4,2.5-.8,3.7-1.6,1.9-3.3,3.7-5,5.4h.1ZM1068.3,386.5c2.8-2.6,5.4-5.4,7.8-8.4-2.5,4-5.2,7.8-8.2,11.4.2-1,.3-2,.4-3h0ZM1066.7,371c-.6-3.2-1.2-6.3-1.9-9.4,5.8-4.7,10.9-10,15.4-15.9.3,1.4.6,2.8.9,4.2.3,1.7.5,3.5.6,5.3-4.4,5.9-9.4,11.2-15,15.8h0ZM1091.5,319c-.9-3.8-2-7.5-3.4-11.2.9-4.5,1.3-9,1-13.6,1.6,6.3,2.6,12.8,3.1,19.3,0,1.8-.4,3.7-.7,5.5h0ZM1087.5,306.2c-1-2.4-2.1-4.8-3.3-7.1,1.3-5.9,1.5-12,.6-18,1.1,2.8,2.1,5.6,3,8.5.8,5.5.7,11.2-.3,16.7h0ZM876.8,321c0-1.6,0-3.1,0-4.6.5,2.5,1.2,4.9,2,7.3-.5,2.2-.8,4.4-1.1,6.6,0-.2,0-.4-.2-.6-.3-.9-.5-1.8-.7-2.8,0-1.9-.2-3.9-.2-5.9h.1ZM877.6,332.4v1.4c0-.9-.2-1.7-.3-2.6,0,.4.2.8.4,1.1h-.1ZM972.6,428.1c3.5.3,7.1.5,10.7.5s9.1-.3,13.6-.8c0,.1,0,.2,0,.3-4.1.5-8.2.7-12.3.7s-6.7-.2-10.1-.5c-.7,0-1.3-.2-2-.2ZM1082.8,361.9c.2-2.3.2-4.5,0-6.8,3-4.1,5.6-8.6,7.6-13.3-.7,3.8-1.7,7.6-2.9,11.4-1.4,3-3,5.9-4.8,8.7h.1Z"/>
      </g>
    </g>
  </g>
  <g id="_x34_ca2651a-3f77-49a1-9ffe-c2ffe4243ec0">
    <g>
      <g id="f625c181-4791-4800-972b-30d5e0d7321f">
        <path class="st4" d="M264.2,85.8h.4c.2,0,.5,0,.7.2h.4c.2,0,.5.2.7.3.1,0,.2,0,.4.2.2,0,.4.2.7.4.1,0,.2,0,.3.2.2.2.4.3.6.5,0,0,.2.2.3.3.2.2.4.4.5.6,0,0,.2.2.3.3.1.2.3.4.4.7,0,0,.1.2.2.4.1.3.2.5.3.8.1.4.3.8.4,1.3,7.8,35.4,15.6,70.7,23.3,106.1,1.4-.6,2.9-1.1,4.3-1.7,4.4-1.6,8.7-3.3,13.1-4.9,4.4-1.6,8.8-3.2,13.1-4.7,4.4-1.5,8.8-3.1,13.2-4.6,4.4-1.5,8.8-2.9,13.2-4.4,4.4-1.4,8.9-2.8,13.3-4.2s8.9-2.7,13.3-4.1c4.5-1.3,8.9-2.6,13.4-3.9,4.5-1.2,8.9-2.5,13.4-3.7s9-2.4,13.5-3.6c4.5-1.1,9-2.3,13.5-3.4,4.5-1.1,9-2.2,13.5-3.2s9-2,13.6-3.1c4.5-1,9.1-1.9,13.6-2.9,4.5-.9,9.1-1.8,13.6-2.7,4.6-.9,9.1-1.7,13.7-2.6,4.6-.8,9.1-1.6,13.7-2.4,4.6-.7,9.1-1.5,13.7-2.2,4.6-.7,9.2-1.4,13.7-2,4.6-.6,9.2-1.3,13.8-1.9,4.6-.6,9.2-1.1,13.8-1.7,4.6-.5,9.2-1,13.8-1.5s9.2-.9,13.8-1.4c4.6-.4,9.2-.8,13.8-1.2,4.6-.4,9.2-.7,13.9-1,4.6-.3,9.2-.6,13.9-.9,4.6-.2,9.3-.5,13.9-.7,4.6-.2,9.3-.4,13.9-.5,4.6,0,9.3-.2,13.9-.4,4.6,0,9.3,0,13.9-.2h23.2c4.6,0,9.3.2,13.9.3,1.7,0,3.4,0,5.1,0,3.4,0,6.8.2,10.2.4,1.7,0,3.4,0,5.1.2,3.4.2,6.8.3,10.2.5,1.7,0,3.4.2,5.1.3,3.4.2,6.8.4,10.2.6s3.4.2,5.1.3c3.4.3,6.8.5,10.1.8,1.7,0,3.4.3,5.1.4,3.4.3,6.8.6,10.1.9,1.7.2,3.4.3,5.1.5,3.4.3,6.7.7,10.1,1,1.7.2,3.4.4,5.1.5,3.4.4,6.7.8,10.1,1.2,1.7.2,3.4.4,5.1.6,3.4.4,6.7.9,10.1,1.3,1.7.2,3.4.4,5,.7,3.4.5,6.7,1,10.1,1.4,1.7.2,3.4.5,5,.7,3.3.5,6.7,1,10,1.6,1.7.3,3.3.5,5,.8,3.3.6,6.7,1.1,10,1.7,1.7.3,3.3.6,5,.9,3.3.6,6.7,1.2,10,1.8,1.7.3,3.3.6,5,.9,3.3.7,6.7,1.3,10,2,1.7.3,3.3.7,5,1,3.3.7,6.6,1.4,10,2.1,1.7.4,3.3.7,5,1.1,3.3.7,6.6,1.5,9.9,2.2,5,1.2,9.9,2.3,14.9,3.5.5.1,1,.2,1.5.4,1.6.4,3.1.8,4.7,1.2,1.6.4,3.2.9,4.8,1.3,1.7.5,3.3.9,5,1.4s3.4,1,5.1,1.5c1.7.5,3.5,1,5.2,1.5,1.8.5,3.5,1.1,5.3,1.6,1.8.6,3.6,1.1,5.4,1.7,1.8.6,3.7,1.2,5.5,1.7,1.9.6,3.7,1.2,5.6,1.8,2.5.8,5,1.7,7.6,2.5,3.9,1.3,7.7,2.6,11.6,3.9,3.9,1.4,7.8,2.7,11.7,4.1,2.8,1,5.5,2,8.3,3,.2.1.5.2.7.4,0,0,.2.1.3.2.2.2.4.3.6.5,0,0,.2.2.3.2,0,.2.3.4.4.5,0,0,0,.2.2.3,0,.2.2.4.3.6,0,.1,0,.2,0,.3,0,.2,0,.4.2.6v2.2c0,.2,0,.4-.2.6,0,.1,0,.2,0,.3,0,.2-.2.4-.3.6,0,0,0,.2-.2.3,0,.2-.2.4-.4.5,0,0,0,.2-.2.3-.2.2-.3.3-.5.5,0,0-.2.1-.2.2-.2.1-.4.2-.5.4,0,0-.2.1-.3.2-.2,0-.4.2-.6.3,0,0-.2,0-.3.1-.2,0-.5,0-.7.1h-1.2c-.4,0-.8-.2-1.2-.2-1.3-.4-2.6-.8-3.9-1.1-3.9-1.1-7.8-2.2-11.7-3.3-3.8-1-7.7-2.1-11.5-3.1-3.1-.8-6.3-1.7-9.4-2.5-1.9-.5-3.7-.9-5.6-1.4-1.8-.5-3.7-.9-5.5-1.4-1.8-.4-3.6-.9-5.4-1.3-1.8-.4-3.5-.8-5.3-1.2-1.7-.4-3.5-.8-5.2-1.2s-3.4-.7-5.1-1.1c-1.7-.3-3.3-.7-5-1-1.6-.3-3.2-.6-4.8-.9-1-.2-2.1-.4-3.1-.6-1.5-.3-3.1-.5-4.6-.8-1.6-.3-3.3-.5-4.9-.8-3.3-.5-6.6-1-9.8-1.5-1.6-.2-3.3-.5-4.9-.7-3.3-.5-6.6-.9-9.9-1.4-1.6-.2-3.3-.5-4.9-.7-3.3-.4-6.6-.8-9.9-1.2-1.6-.2-3.3-.4-4.9-.6-3.3-.4-6.6-.7-9.9-1.1-1.7-.2-3.3-.4-4.9-.5-3.3-.3-6.6-.6-9.9-1-1.7-.2-3.3-.3-5-.5-3.3-.3-6.6-.5-9.9-.8-1.7-.1-3.3-.3-5-.4-3.3-.2-6.6-.5-9.9-.7-1.7-.1-3.3-.2-5-.3-3.3-.2-6.6-.4-9.9-.5-1.7,0-3.3-.2-5-.3-3.3-.1-6.6-.3-9.9-.4-1.7,0-3.3-.1-5-.2-3.3,0-6.6-.2-9.9-.3-1.7,0-3.3,0-5-.1-3.3,0-6.6,0-9.9-.1h-19.9c-3.3,0-6.6.1-9.9.2h-5c-3.3.1-6.6.2-9.9.3-1.7,0-3.3.1-5,.2-3.3.1-6.6.3-9.9.4-5,.3-9.9.6-14.9.8-1.5,0-3,.2-4.6.3-3,.2-6.1.4-9.1.7-1.5.1-3,.2-4.6.3-3,.3-6.1.5-9.1.8-1.5.1-3,.3-4.6.4-3,.3-6.1.6-9.1.9-1.5.2-3,.3-4.6.5-3,.3-6.1.7-9.1,1-1.5.2-3,.3-4.5.5-3,.4-6,.8-9.1,1.1-1.5.2-3,.4-4.5.6-3,.4-6,.8-9,1.2s-3,.4-4.5.6c-3,.5-6,.9-9,1.4-1.5.2-3,.5-4.5.7l-9,1.5c-1.5.2-3,.5-4.5.8-3,.5-6,1.1-9,1.6-1.5.3-3,.5-4.5.8-3,.6-6,1.1-9,1.7-1.5.3-3,.6-4.5.9-3,.6-6,1.2-8.9,1.8-1.5.3-3,.6-4.5.9-3,.6-5.9,1.3-8.9,1.9-1.5.3-3,.7-4.4,1-3,.7-5.9,1.4-8.9,2.1-1.5.3-3,.7-4.4,1-2.9.7-5.9,1.4-8.9,2.2-1.5.4-2.9.7-4.4,1.1-2.9.8-5.9,1.5-8.8,2.3-1.5.4-2.9.8-4.4,1.2-2.9.8-5.9,1.6-8.8,2.4-1.5.4-2.9.8-4.4,1.2-2.9.8-5.8,1.7-8.8,2.5-1.5.4-2.9.8-4.4,1.3-2.9.9-5.8,1.7-8.7,2.6-1.5.4-2.9.9-4.4,1.3-2.9.9-5.8,1.8-8.7,2.7-1.4.5-2.9.9-4.3,1.4-2.9.9-5.8,1.9-8.7,2.8-1.4.5-2.9,1-4.3,1.4-2.9,1-5.7,2-8.6,2.9-1.4.5-2.9,1-4.3,1.5-2.9,1-5.7,2-8.6,3.1-1.4.5-2.9,1-4.3,1.5-2.9,1.1-5.7,2.1-8.5,3.2-1.4.5-2.9,1.1-4.3,1.6-2.8,1.1-5.7,2.2-8.5,3.3-1.4.6-2.8,1.1-4.3,1.7-2.8,1.1-5.6,2.3-8.5,3.4-1.4.6-2.8,1.1-4.2,1.7-2.8,1.2-5.6,2.3-8.4,3.5-1.4.6-2.8,1.2-4.2,1.8-2.8,1.2-5.6,2.4-8.4,3.6s-2.8,1.2-4.2,1.8c-2.8,1.2-5.6,2.5-8.3,3.7-1.4.6-2.8,1.2-4.2,1.9-2.8,1.3-5.5,2.6-8.3,3.8-1.4.6-2.8,1.3-4.1,1.9-2.7,1.3-5.5,2.6-8.3,3.9-1.4.7-2.7,1.3-4.1,2-2.7,1.3-5.5,2.7-8.2,4-4.1,2.1-8.2,4.1-12.3,6.2,8.7,36.6,17.5,73.1,26.2,109.7v2.4c0,.2-.1.5-.2.7v.4c0,.2-.2.5-.2.7s0,.2-.1.3c-.1.2-.2.4-.3.6,0,.1-.1.2-.2.3-.1.2-.3.4-.4.6,0,0-.1.2-.2.3l-.5.5s-.2.2-.3.2c-.2.1-.4.3-.6.4,0,0-.2.1-.3.2-.2.1-.4.2-.6.4-.1,0-.2.1-.3.2-.2,0-.4.2-.7.3-.1,0-.2,0-.3.1-.2,0-.5.1-.7.2h-2.6c-.2,0-.5,0-.8-.1h-.4c-.2,0-.5-.2-.7-.3-.4-.2-.7-.4-1.1-.5-2.5-1.5-5-2.9-7.5-4.4-7.5-4.3-15-8.7-22.5-13-7.6-4.3-15.1-8.5-22.7-12.8-5.1-2.8-10.2-5.6-15.2-8.4-7.7-4.2-15.3-8.3-23-12.5-1.4,1.3-2.7,2.6-4.1,3.9-2.7,2.7-5.4,5.3-8,8-1.3,1.3-2.7,2.7-4,4-2.6,2.7-5.3,5.4-7.9,8.1-1.3,1.4-2.6,2.7-3.9,4.1-2.6,2.7-5.2,5.5-7.8,8.2-1.3,1.4-2.6,2.7-3.9,4.1-2.6,2.8-5.1,5.5-7.7,8.3-1.3,1.4-2.5,2.8-3.8,4.2-2.5,2.8-5,5.6-7.5,8.4-1.3,1.4-2.5,2.8-3.8,4.2-2.5,2.8-4.9,5.7-7.4,8.5-1.2,1.4-2.5,2.9-3.7,4.3-2.4,2.9-4.9,5.8-7.3,8.6-3.6,4.4-7.2,8.7-10.8,13.1-.1.1-.2.3-.3.4-.2.2-.5.4-.7.7-.1.1-.2.2-.4.3-.3.2-.5.3-.8.5-.1,0-.3.2-.4.2-.3.1-.5.2-.8.3-.1,0-.3,0-.4.2-.3,0-.6.1-.8.2h-1.6c-.3,0-.5,0-.8-.1h-.4c-.3,0-.5-.2-.8-.2s-.3,0-.4-.1c-.2-.1-.5-.2-.8-.4-.1,0-.2-.1-.4-.2-.2-.2-.5-.3-.7-.5-.1,0-.2-.2-.3-.2-.2-.2-.4-.4-.6-.6,0,0-.2-.2-.3-.3-.2-.2-.3-.4-.5-.7,0-.1-.2-.2-.2-.3-.1-.2-.3-.5-.4-.7,0-.1-.1-.2-.2-.4,0-.3-.2-.5-.3-.8,0-.1,0-.3-.1-.4,0-.3,0-.6-.1-.9v-1.3c0-.5.2-1,.3-1.5.5-1.8,1-3.6,1.4-5.4,1.5-5.4,2.9-10.8,4.4-16.1,1.5-5.4,3-10.7,4.5-16s3.1-10.6,4.6-15.9c1.6-5.3,3.2-10.6,4.8-15.9s3.3-10.5,4.9-15.8c1.7-5.2,3.3-10.4,5-15.7,1.1-3.5,2.3-6.9,3.4-10.4,1.7-5.2,3.5-10.3,5.2-15.5-2.6-1.2-5.2-2.5-7.9-3.7-7.9-3.6-15.8-7.3-23.7-10.9-8-3.5-15.9-7.1-23.9-10.6-5.4-2.3-10.7-4.6-16-6.9-8.1-3.4-16.1-6.8-24.2-10.2,0,0-.3-.1-.4-.2-.2-.1-.5-.3-.7-.4,0,0-.2-.1-.4-.2-.2-.2-.4-.3-.6-.5,0,0-.2-.2-.3-.3-.2-.2-.3-.4-.5-.6,0,0-.2-.2-.2-.3,0-.2-.3-.4-.4-.6,0-.1,0-.2-.2-.3,0-.2-.2-.5-.3-.7,0-.1,0-.2,0-.3,0-.2,0-.5-.2-.7v-.4c0-.2,0-.5,0-.7v-1.5c0-.2,0-.5,0-.7v-.4c0-.2,0-.5.2-.7,0-.1,0-.2,0-.4s.2-.5.3-.7c0-.1,0-.2.2-.3,0-.2.3-.4.4-.6,0-.1,0-.2.2-.3.2-.2.3-.4.5-.6l.3-.3c.2-.2.4-.3.6-.5,0,0,.2-.2.3-.2.2-.1.5-.3.7-.4.4-.2.8-.3,1.2-.5,1.8-.6,3.5-1.2,5.3-1.8,3.5-1.2,7.1-2.3,10.6-3.5,1.8-.6,3.5-1.2,5.3-1.7,3.6-1.1,7.1-2.2,10.7-3.4,1.8-.6,3.6-1.1,5.3-1.7,3.6-1.1,7.1-2.1,10.7-3.2,1.8-.5,3.6-1.1,5.4-1.6,3.6-1,7.2-2,10.7-3.1,1.8-.5,3.6-1,5.4-1.5,3.6-1,7.2-1.9,10.8-2.9s3.6-1,5.4-1.4c3.6-.9,7.2-1.8,10.8-2.7,1.8-.5,3.6-.9,5.4-1.4,3.6-.9,7.2-1.7,10.9-2.6,5.4-1.2,10.9-2.5,16.3-3.7.7-1.8,1.4-3.6,2.1-5.4,2.1-5.3,4.2-10.7,6.3-16s4.3-10.6,6.4-15.9c2.2-5.3,4.4-10.5,6.6-15.8,2.2-5.2,4.4-10.4,6.7-15.6,2.3-5.2,4.5-10.3,6.8-15.5,2.3-5.1,4.6-10.3,6.9-15.4,1.6-3.4,3.1-6.8,4.7-10.2,2.4-5.1,4.7-10.1,7.1-15.2,0,0,.1-.3.2-.4.2-.2.3-.5.5-.7,0,0,.2-.2.2-.4.2-.2.4-.4.5-.6,0,0,.2-.2.3-.3.2-.2.4-.3.6-.5.1,0,.2-.2.3-.2.2,0,.5-.3.7-.4.1,0,.2,0,.3-.2.2,0,.5-.2.7-.3.1,0,.2,0,.4,0,.2,0,.5,0,.7-.2h2.4l-.3.3Z"/>
      </g>
      <g id="_x34_ca2651a-3f77-49a1-9ffe-c2ffe4243ec0-child-0">
        <path class="st0" d="M1058.6,182.3c6.5,2.3,3.3,12.1-3.3,10.2-31.4-9.1-61.9-16.9-86.2-20.9-78.6-13.1-158.4-17.1-237.9-12.2-146.3,9.2-289,48.5-419.4,115.4,8.7,36.4,17.4,72.8,26.1,109.3,1.6,6.6-5.5,11.8-11.4,8.4-29.8-17.5-60.1-34.5-90.9-51-32.5,31.5-63.1,64.9-91.6,100-5.2,6.4-15.5,1.2-13.4-6.8,11.5-43.3,24.3-85.5,38.3-126.7-31.4-14.8-63.3-28.9-95.7-42.3-6.5-2.7-6.2-12.1.5-14.4,42.3-14.5,85.3-26.5,129-36.2,16.6-43,34.5-84.6,53.6-124.9,3.1-6.6,12.9-5.5,14.4,1.6,7.8,35.4,15.5,70.7,23.3,106.1,139.2-53.8,287.4-79,435.9-75.2,81.5,2.1,162.5,12.9,241.6,32.2,24.5,6,55.3,16,86.9,27.5h.2Z"/>
      </g>
    </g>
  </g>
  <g id="_x32_bbddf7b-df49-4561-86ab-cab8682e7dc0">
    <g>
      <g id="_x33_76cbb6e-98ff-46eb-bc2f-18817f572a7f">
        <path class="st3" d="M245.9,62.8h.4c.2,0,.5,0,.7.2h.4c.2,0,.5.2.7.3.1,0,.2,0,.4.2.2,0,.4.2.7.4.1,0,.2,0,.3.2.2.2.4.3.6.5l.3.3c.2.2.4.4.5.6,0,0,.2.2.3.3.1.2.3.4.4.7,0,0,.1.2.2.4.1.3.2.5.3.8.1.4.3.8.4,1.3,7.8,35.4,15.6,70.7,23.3,106.1,1.4-.6,2.9-1.1,4.3-1.7,4.4-1.6,8.7-3.3,13.1-4.9,4.4-1.6,8.8-3.2,13.1-4.7,4.4-1.5,8.8-3.1,13.2-4.6,4.4-1.5,8.8-2.9,13.2-4.4,4.4-1.4,8.9-2.8,13.3-4.2s8.9-2.7,13.3-4.1c4.5-1.3,8.9-2.6,13.4-3.9,4.5-1.2,8.9-2.5,13.4-3.7s9-2.4,13.5-3.6c4.5-1.1,9-2.3,13.5-3.4,4.5-1.1,9-2.2,13.5-3.2s9-2,13.6-3.1c4.5-1,9.1-1.9,13.6-2.9,4.5-.9,9.1-1.8,13.6-2.7,4.6-.9,9.1-1.7,13.7-2.6,4.6-.8,9.1-1.6,13.7-2.4,4.6-.7,9.1-1.5,13.7-2.2,4.6-.7,9.2-1.4,13.7-2,4.6-.6,9.2-1.3,13.8-1.9s9.2-1.1,13.8-1.7c4.6-.5,9.2-1,13.8-1.5s9.2-.9,13.8-1.4c4.6-.4,9.2-.8,13.8-1.2,4.6-.4,9.2-.7,13.9-1,4.6-.3,9.2-.6,13.9-.9,4.6-.2,9.3-.5,13.9-.7,4.6-.2,9.3-.4,13.9-.5,4.6,0,9.3-.2,13.9-.4,4.6,0,9.3,0,13.9-.2h23.2c4.6,0,9.3.2,13.9.3,1.7,0,3.4,0,5.1,0,3.4,0,6.8.2,10.2.4,1.7,0,3.4,0,5.1.2,3.4.2,6.8.3,10.2.5,1.7,0,3.4.2,5.1.3,3.4.2,6.8.4,10.2.6s3.4.2,5.1.3c3.4.3,6.8.5,10.1.8,1.7,0,3.4.3,5.1.4,3.4.3,6.8.6,10.1.9,1.7.2,3.4.3,5.1.5,3.4.3,6.7.7,10.1,1,1.7.2,3.4.4,5.1.5,3.4.4,6.7.8,10.1,1.2,1.7.2,3.4.4,5.1.6,3.4.4,6.7.9,10.1,1.3,1.7.2,3.4.4,5,.7,3.4.5,6.7,1,10.1,1.4,1.7.2,3.4.5,5,.7,3.3.5,6.7,1,10,1.6,1.7.3,3.3.5,5,.8,3.3.6,6.7,1.1,10,1.7,1.7.3,3.3.6,5,.9,3.3.6,6.7,1.2,10,1.8,1.7.3,3.3.6,5,.9,3.3.7,6.7,1.3,10,2,1.7.3,3.3.7,5,1,3.3.7,6.6,1.4,10,2.1,1.7.4,3.3.7,5,1.1,3.3.7,6.6,1.5,9.9,2.2,5,1.2,9.9,2.3,14.9,3.5.5.1,1,.2,1.5.4,1.6.4,3.1.8,4.7,1.2,1.6.4,3.2.9,4.8,1.3,1.7.5,3.3.9,5,1.4s3.4,1,5.1,1.5c1.7.5,3.5,1,5.2,1.5,1.8.5,3.5,1.1,5.3,1.6,1.8.6,3.6,1.1,5.4,1.7,1.8.6,3.7,1.2,5.5,1.7,1.9.6,3.7,1.2,5.6,1.8,2.5.8,5,1.7,7.6,2.5,3.9,1.3,7.7,2.6,11.6,3.9,3.9,1.4,7.8,2.7,11.7,4.1,2.8,1,5.5,2,8.3,3,.2.1.5.2.7.4,0,0,.2.1.3.2.2.2.4.3.6.5,0,0,.2.2.3.2,0,.2.3.4.4.5,0,0,0,.2.2.3,0,.2.2.4.3.6,0,.1,0,.2,0,.3,0,.2,0,.4.2.6v2.2c0,.2,0,.4-.2.6,0,.1,0,.2,0,.3,0,.2-.2.4-.3.6,0,0,0,.2-.2.3,0,.2-.2.4-.4.5,0,0,0,.2-.2.3-.2.2-.3.3-.5.5,0,0-.2.1-.2.2-.2.1-.4.2-.5.4,0,0-.2.1-.3.2-.2,0-.4.2-.6.3,0,0-.2,0-.3.1-.2,0-.5,0-.7.1h-1.2c-.4,0-.8-.2-1.2-.2-1.3-.4-2.6-.8-3.9-1.1-3.9-1.1-7.8-2.2-11.7-3.3-3.8-1-7.7-2.1-11.5-3.1-3.1-.8-6.3-1.7-9.4-2.5-1.9-.5-3.7-.9-5.6-1.4-1.8-.5-3.7-.9-5.5-1.4-1.8-.4-3.6-.9-5.4-1.3-1.8-.4-3.5-.8-5.3-1.2-1.7-.4-3.5-.8-5.2-1.2s-3.4-.7-5.1-1.1c-1.7-.3-3.3-.7-5-1-1.6-.3-3.2-.6-4.8-.9-1-.2-2.1-.4-3.1-.6-1.5-.3-3.1-.5-4.6-.8-1.6-.3-3.3-.5-4.9-.8-3.3-.5-6.6-1-9.8-1.5-1.6-.2-3.3-.5-4.9-.7-3.3-.5-6.6-.9-9.9-1.4-1.6-.2-3.3-.5-4.9-.7-3.3-.4-6.6-.8-9.9-1.2-1.6-.2-3.3-.4-4.9-.6-3.3-.4-6.6-.7-9.9-1.1-1.7-.2-3.3-.4-4.9-.5-3.3-.3-6.6-.6-9.9-1-1.7-.2-3.3-.3-5-.5-3.3-.3-6.6-.5-9.9-.8-1.7-.1-3.3-.3-5-.4-3.3-.2-6.6-.5-9.9-.7-1.7-.1-3.3-.2-5-.3-3.3-.2-6.6-.4-9.9-.5-1.7,0-3.3-.2-5-.3-3.3-.1-6.6-.3-9.9-.4-1.7,0-3.3-.1-5-.2-3.3,0-6.6-.2-9.9-.3-1.7,0-3.3,0-5-.1-3.3,0-6.6,0-9.9-.1h-19.9c-3.3,0-6.6.1-9.9.2h-5c-3.3.1-6.6.2-9.9.3-1.7,0-3.3.1-5,.2-3.3.1-6.6.3-9.9.4-5,.3-9.9.6-14.9.8-1.5,0-3,.2-4.6.3-3,.2-6.1.4-9.1.7-1.5.1-3,.2-4.6.3-3,.3-6.1.5-9.1.8-1.5.1-3,.3-4.6.4-3,.3-6.1.6-9.1.9-1.5.2-3,.3-4.6.5-3,.3-6.1.7-9.1,1-1.5.2-3,.3-4.5.5-3,.4-6,.8-9.1,1.1-1.5.2-3,.4-4.5.6-3,.4-6,.8-9,1.2s-3,.4-4.5.6c-3,.5-6,.9-9,1.4-1.5.2-3,.5-4.5.7l-9,1.5c-1.5.2-3,.5-4.5.8-3,.5-6,1.1-9,1.6-1.5.3-3,.5-4.5.8-3,.6-6,1.1-9,1.7-1.5.3-3,.6-4.5.9-3,.6-6,1.2-8.9,1.8-1.5.3-3,.6-4.5.9-3,.6-5.9,1.3-8.9,1.9-1.5.3-3,.7-4.4,1-3,.7-5.9,1.4-8.9,2.1-1.5.3-3,.7-4.4,1-2.9.7-5.9,1.4-8.9,2.2-1.5.4-2.9.7-4.4,1.1-2.9.8-5.9,1.5-8.8,2.3-1.5.4-2.9.8-4.4,1.2-2.9.8-5.9,1.6-8.8,2.4-1.5.4-2.9.8-4.4,1.2-2.9.8-5.8,1.7-8.8,2.5-1.5.4-2.9.8-4.4,1.3-2.9.9-5.8,1.7-8.7,2.6-1.5.4-2.9.9-4.4,1.3-2.9.9-5.8,1.8-8.7,2.7-1.4.5-2.9.9-4.3,1.4-2.9.9-5.8,1.9-8.7,2.8-1.4.5-2.9,1-4.3,1.4-2.9,1-5.7,2-8.6,2.9-1.4.5-2.9,1-4.3,1.5-2.9,1-5.7,2-8.6,3.1-1.4.5-2.9,1-4.3,1.5-2.9,1.1-5.7,2.1-8.5,3.2-1.4.5-2.9,1.1-4.3,1.6-2.8,1.1-5.7,2.2-8.5,3.3-1.4.6-2.8,1.1-4.3,1.7-2.8,1.1-5.6,2.3-8.5,3.4-1.4.6-2.8,1.1-4.2,1.7-2.8,1.2-5.6,2.3-8.4,3.5-1.4.6-2.8,1.2-4.2,1.8-2.8,1.2-5.6,2.4-8.4,3.6s-2.8,1.2-4.2,1.8c-2.8,1.2-5.6,2.5-8.3,3.7-1.4.6-2.8,1.2-4.2,1.9-2.8,1.3-5.5,2.6-8.3,3.8-1.4.6-2.8,1.3-4.1,1.9-2.7,1.3-5.5,2.6-8.3,3.9-1.4.7-2.7,1.3-4.1,2-2.7,1.3-5.5,2.7-8.2,4-4.1,2.1-8.2,4.1-12.3,6.2,8.7,36.6,17.5,73.1,26.2,109.7v2.4c0,.2-.1.5-.2.7v.4c0,.2-.2.5-.2.7s0,.2-.1.3c-.1.2-.2.4-.3.6,0,.1-.1.2-.2.3-.1.2-.3.4-.4.6,0,0-.1.2-.2.3l-.5.5s-.2.2-.3.2c-.2.1-.4.3-.6.4,0,0-.2.1-.3.2-.2.1-.4.2-.6.4-.1,0-.2.1-.3.2-.2,0-.4.2-.7.3-.1,0-.2,0-.3.1-.2,0-.5.1-.7.2h-2.6c-.2,0-.5,0-.8-.1h-.4c-.2,0-.5-.2-.7-.3-.4-.2-.7-.4-1.1-.5-2.5-1.5-5-2.9-7.5-4.4-7.5-4.3-15-8.7-22.5-13-7.6-4.3-15.1-8.5-22.7-12.8-5.1-2.8-10.2-5.6-15.2-8.4-7.7-4.2-15.3-8.3-23-12.5-1.4,1.3-2.7,2.6-4.1,3.9-2.7,2.7-5.4,5.3-8,8-1.3,1.3-2.7,2.7-4,4-2.6,2.7-5.3,5.4-7.9,8.1-1.3,1.4-2.6,2.7-3.9,4.1-2.6,2.7-5.2,5.5-7.8,8.2-1.3,1.4-2.6,2.7-3.9,4.1-2.6,2.8-5.1,5.5-7.7,8.3-1.3,1.4-2.5,2.8-3.8,4.2-2.5,2.8-5,5.6-7.5,8.4-1.3,1.4-2.5,2.8-3.8,4.2-2.5,2.8-4.9,5.7-7.4,8.5-1.2,1.4-2.5,2.9-3.7,4.3-2.4,2.9-4.9,5.8-7.3,8.6-3.6,4.4-7.2,8.7-10.8,13.1,0,.1-.2.3-.3.4-.2.2-.5.4-.7.7,0,.1-.2.2-.4.3-.3.2-.5.3-.8.5,0,0-.3.2-.4.2-.3.1-.5.2-.8.3,0,0-.3,0-.4.2-.3,0-.6.1-.8.2h-1.6c-.3,0-.5,0-.8-.1h-.4c-.3,0-.5-.2-.8-.2s-.3,0-.4-.1c-.2-.1-.5-.2-.8-.4,0,0-.2-.1-.4-.2-.2-.2-.5-.3-.7-.5,0,0-.2-.2-.3-.2-.2-.2-.4-.4-.6-.6,0,0-.2-.2-.3-.3-.2-.2-.3-.4-.5-.7,0-.1-.2-.2-.2-.3,0-.2-.3-.5-.4-.7,0-.1,0-.2-.2-.4,0-.3-.2-.5-.3-.8,0-.1,0-.3,0-.4,0-.3,0-.6,0-.9v-1.3c0-.5.2-1,.3-1.5.5-1.8,1-3.6,1.4-5.4,1.5-5.4,2.9-10.8,4.4-16.1,1.5-5.4,3-10.7,4.5-16s3.1-10.6,4.6-15.9c1.6-5.3,3.2-10.6,4.8-15.9,1.6-5.3,3.3-10.5,4.9-15.8,1.7-5.2,3.3-10.4,5-15.7,1.1-3.5,2.3-6.9,3.4-10.4,1.7-5.2,3.5-10.3,5.2-15.5-2.6-1.2-5.2-2.5-7.9-3.7-7.9-3.6-15.8-7.3-23.7-10.9-8-3.5-15.9-7.1-23.9-10.6-5.4-2.3-10.7-4.6-16-6.9-8.1-3.4-16.1-6.8-24.2-10.2,0,0-.3-.1-.4-.2-.2-.1-.5-.3-.7-.4,0,0-.2-.1-.4-.2-.2-.2-.4-.3-.6-.5,0,0-.2-.2-.3-.3-.2-.2-.3-.4-.5-.6l-.2-.3c0-.2-.3-.4-.4-.6,0-.1,0-.2-.2-.3,0-.2-.2-.5-.3-.7,0-.1,0-.2,0-.3,0-.2,0-.5-.2-.7v-.4c0-.2,0-.5,0-.7v-1.5c0-.2,0-.5,0-.7v-.4c0-.2,0-.5.2-.7,0-.1,0-.2,0-.4s.2-.5.3-.7c0-.1,0-.2.2-.3,0-.2.3-.4.4-.6,0-.1,0-.2.2-.3.2-.2.3-.4.5-.6,0,0,.2-.2.3-.3.2-.2.4-.3.6-.5,0,0,.2-.2.3-.2.2-.1.5-.3.7-.4.4-.2.8-.3,1.2-.5,1.8-.6,3.5-1.2,5.3-1.8,3.5-1.2,7.1-2.3,10.6-3.5,1.8-.6,3.5-1.2,5.3-1.7,3.6-1.1,7.1-2.2,10.7-3.4,1.8-.6,3.6-1.1,5.3-1.7,3.6-1.1,7.1-2.1,10.7-3.2,1.8-.5,3.6-1.1,5.4-1.6,3.6-1,7.2-2,10.7-3.1,1.8-.5,3.6-1,5.4-1.5,3.6-1,7.2-1.9,10.8-2.9,1.8-.5,3.6-1,5.4-1.4,3.6-.9,7.2-1.8,10.8-2.7,1.8-.5,3.6-.9,5.4-1.4,3.6-.9,7.2-1.7,10.9-2.6,5.4-1.2,10.9-2.5,16.3-3.7.7-1.8,1.4-3.6,2.1-5.4,2.1-5.3,4.2-10.7,6.3-16s4.3-10.6,6.4-15.9c2.2-5.3,4.4-10.5,6.6-15.8,2.2-5.2,4.4-10.4,6.7-15.6,2.3-5.2,4.5-10.3,6.8-15.5,2.3-5.1,4.6-10.3,6.9-15.4,1.6-3.4,3.1-6.8,4.7-10.2,2.4-5.1,4.7-10.1,7.1-15.2,0,0,.1-.3.2-.4.2-.2.3-.5.5-.7,0,0,.2-.2.2-.4.2-.2.4-.4.5-.6l.3-.3c.2-.2.4-.3.6-.5.1,0,.2-.2.3-.2.2,0,.5-.3.7-.4.1,0,.2,0,.3-.2.2,0,.5-.2.7-.3.1,0,.2,0,.4,0,.2,0,.5,0,.7-.2h2.4l-.3.3Z"/>
      </g>
      <g id="_x32_bbddf7b-df49-4561-86ab-cab8682e7dc0-child-0">
        <path class="st7" d="M1040.3,159.3c6.5,2.3,3.3,12.1-3.3,10.2-31.4-9.1-61.9-16.9-86.2-20.9-78.6-13.1-158.4-17.1-237.9-12.2-146.3,9.2-289,48.5-419.4,115.4,8.7,36.4,17.4,72.8,26.1,109.3,1.6,6.6-5.5,11.8-11.4,8.4-29.8-17.5-60.1-34.5-90.9-51-32.5,31.5-63.1,64.9-91.6,100-5.2,6.4-15.5,1.2-13.4-6.8,11.5-43.3,24.3-85.5,38.3-126.7-31.4-14.8-63.3-28.9-95.7-42.3-6.5-2.7-6.2-12.1.5-14.4,42.3-14.5,85.3-26.5,129-36.2,16.6-43,34.5-84.6,53.6-124.9,3.1-6.6,12.9-5.5,14.4,1.6,7.8,35.4,15.5,70.7,23.3,106.1,139.2-53.8,287.4-79,435.9-75.2,81.5,2.1,162.5,12.9,241.6,32.2,24.5,6,55.3,16,86.9,27.5h.2Z"/>
      </g>
    </g>
  </g>
  <g id="_x33_7ea72aa-0d1c-4d75-92ae-343a8bf1cb54">
    <path class="st2" d="M318,265l6.8,18.6c7.3,0,13.8-1.9,19.4-5.6l-6.8-18.6c-5.6,3.7-12,5.6-19.4,5.6ZM337.3,259.4l6.8,18.6c5.6-3.7,10.2-9.3,13.6-16.7l-6.8-18.6c-3.5,7.4-8,13-13.6,16.7ZM350.9,242.7l6.8,18.6c3.2-6.7,4.1-11.9,2.7-15.6l-6.8-18.6c1.3,3.7.4,8.9-2.7,15.6h0ZM290.9,218.5l6.8,18.6c-.5-1.3-.1-3.1,1.1-5.6l-6.8-18.6c-1.2,2.5-1.6,4.3-1.1,5.6ZM292,212.8l6.8,18.6c1.2-2.5,2.7-4.4,4.3-5.5l-6.8-18.6c-1.7,1.2-3.1,3-4.3,5.6h0ZM296.3,207.3l6.8,18.6c1.7-1.2,3.7-1.8,6-1.8l-6.8-18.6c-2.3,0-4.3.6-6,1.8ZM302.3,205.5l6.8,18.6h64.9l-6.8-18.6h-64.9ZM367.2,205.5l6.8,18.6c2.4-5.1,3.1-8.8,2-11.3l-6.8-18.6c1.1,2.5.4,6.2-2,11.3ZM274.7,228.5l6.8,18.6c.1.4.3.7.4,1l-6.8-18.6c-.2-.3-.3-.7-.5-1h.1ZM275.1,229.6l6.8,18.6c2,3.7,6.7,5.6,14,5.6l-6.8-18.6c-7.3,0-12-1.9-14-5.6ZM289.1,235.2l6.8,18.6h44.1l-6.8-18.6h-44.1ZM333.2,235.2l6.8,18.6c2.3,0,3.7.6,4.2,1.9l-6.8-18.6c-.5-1.3-1.9-1.9-4.2-1.9ZM258,261.3l6.8,18.6c1,2.5,3.7,3.7,8,3.7l-6.8-18.6c-4.3,0-7-1.2-8-3.7ZM266.1,265l6.8,18.6h51.9l-6.8-18.6h-51.9ZM318,265c7.3,0,13.8-1.9,19.4-5.6,5.6-3.7,10.2-9.3,13.6-16.7,3.2-6.7,4.1-11.9,2.7-15.6-.1-.4-.3-.8-.5-1.1-2-3.7-6.7-5.6-13.9-5.6h-44.1c-2.2,0-3.7-.6-4.2-1.9-.5-1.3-.1-3.1,1.1-5.6s2.7-4.4,4.3-5.6c1.7-1.2,3.7-1.8,6-1.8h64.9c2.4-5.1,3.1-8.8,2-11.3-1-2.5-3.7-3.7-8-3.7h-50.5c-7.2,0-13.6,1.9-19.2,5.6-5.6,3.7-10.2,9.3-13.8,16.7-3.3,6.8-4.3,12-2.9,15.7.1.4.3.7.5,1,2,3.7,6.7,5.6,14,5.6h44.1c2.3,0,3.7.6,4.2,1.9.6,1.3.3,3.1-.9,5.6-1.3,2.5-2.7,4.4-4.2,5.6-1.7,1.2-3.8,1.8-6.2,1.8h-66c-2.5,5.1-3.2,8.8-2.2,11.3s3.7,3.7,8,3.7h51.9,0ZM429.8,265.1l6.8,18.6c4.3,0,8.1-1.2,11.4-3.6l-6.8-18.6c-3.3,2.4-7.1,3.6-11.4,3.6ZM441.2,261.5l6.8,18.6c3.4-2.4,6.1-5.8,8.1-10.3l-6.8-18.6c-2,4.5-4.7,8-8.1,10.3ZM449.3,251.2l6.8,18.6,21.3-46.8-6.8-18.6-21.3,46.8h0ZM470.6,204.4l6.8,18.6c1.9-4.2,2.4-7.5,1.6-9.8l-6.8-18.6c.8,2.3.3,5.6-1.6,9.8ZM353.5,261.1l6.8,18.6c0,.1.1.3.2.4l-6.8-18.6c0-.1-.1-.3-.2-.4ZM353.7,261.5l6.8,18.6c1.2,2.4,3.9,3.6,8.1,3.6l-6.8-18.6c-4.2,0-6.9-1.2-8.1-3.6ZM361.8,265.1l6.8,18.6h68l-6.8-18.6h-68ZM429.8,265.1c4.3,0,8.1-1.2,11.4-3.6,3.4-2.4,6.1-5.8,8.1-10.3l21.3-46.8c1.9-4.2,2.4-7.5,1.6-9.8,0-.2-.1-.3-.2-.5-1.2-2.4-3.9-3.6-8-3.6h-67.2c-4.2,0-8,1.2-11.4,3.6-3.3,2.4-6,5.8-8,10.3l-22.1,46.8c-2.1,4.3-2.7,7.6-1.8,9.9,0,.1,0,.3.2.4,1.2,2.4,3.9,3.6,8.1,3.6h68,0ZM372.5,248.9l6.8,18.6c-.3-.9-.1-2.1.5-3.7l-6.8-18.6c-.7,1.6-.8,2.9-.5,3.7h0ZM373,245.2l6.8,18.6,16.3-34.7-6.8-18.6-16.2,34.7h0ZM389.2,210.4l6.8,18.6c.7-1.6,1.7-2.8,3-3.7l-6.8-18.6c-1.2.9-2.3,2.1-3,3.7ZM392.3,206.7l6.8,18.6c1.3-.9,2.7-1.3,4.1-1.3l-6.8-18.6c-1.5,0-2.8.4-4.1,1.3ZM396.4,205.3l6.8,18.6h54.3l-6.8-18.6h-54.3ZM450.6,205.3l6.8,18.6c1.5,0,2.5.4,2.9,1.3l-6.8-18.6c-.4-.9-1.4-1.3-2.9-1.3ZM453.6,206.7l6.8,18.6v.2l-6.8-18.6s0-.2-.1-.2h.1ZM375.4,250.3c-1.6,0-2.6-.4-2.9-1.3-.3-.9-.2-2.1.5-3.7l16.2-34.7c.7-1.6,1.8-2.9,3-3.7,1.3-.9,2.7-1.3,4.1-1.3h54.3c1.5,0,2.5.4,2.9,1.3,0,0,0,.2.1.2.3.9.1,2-.5,3.5l-15.9,34.7c-.7,1.6-1.7,2.9-3,3.7-1.2.9-2.6,1.3-4.3,1.3h-54.6,0ZM453.7,264.8l6.8,18.6h71.6l-6.8-18.6h-71.6,0ZM525.3,264.8l6.8,18.6c4.3,0,8.1-1.2,11.4-3.7l-6.8-18.6c-3.3,2.4-7.1,3.7-11.4,3.7ZM536.6,261.2l6.8,18.6c3.3-2.4,6.1-6.2,8.3-11.2l-6.8-18.6c-2.3,5-5,8.7-8.3,11.2ZM475.4,250l6.8,18.6,26.6-59.3-6.8-18.6-26.6,59.3ZM453.7,264.8h71.6c4.3,0,8.1-1.2,11.4-3.7,3.3-2.4,6.1-6.2,8.3-11.2h-69.6l26.6-59.3h-14.7l-33.6,74.1h0ZM541.6,264.8l6.8,18.6h17.8l-6.8-18.6h-17.8ZM559.5,264.8l6.8,18.6,62.6-60.1-6.8-18.6-62.6,60.1ZM593.1,248.4l6.8,18.6h36.2l-6.8-18.6h-36.2ZM632,264.8l6.8,18.6h17.6l-6.8-18.6h-17.6ZM649.6,264.8l6.8,18.6-12-74.2-6.8-18.6,12,74.2ZM541.6,264.8h17.8l62.6-60.1,4.8,29h-19.3l-14.4,14.7h36.2l2.7,16.4h17.6l-12-74.2h-19.1l-76.9,74.2h0ZM727.7,264.8l6.8,18.6h14.9l-6.8-18.6h-14.9ZM742.6,264.8l6.8,18.6,30-74.1-6.8-18.6-30,74.1ZM684.6,197.4l6.8,18.6,43.1,67.4-6.8-18.6-43.1-67.4ZM727.7,264.8h14.9l30-74.1h-14.8l-21.7,53.3-34.1-53.3h-9.1c-1.7,0-3.3.5-4.8,1.5s-2.6,2.5-3.4,4.5l-.2.6,43.1,67.4h0ZM656.2,264.8l6.8,18.6h14.9l-6.8-18.6h-14.9ZM671.1,264.8l6.8,18.6,13-30.9-6.8-18.6-13,30.9ZM656.2,264.8h14.9l13-30.9-8.9-14.1-19,45ZM748.3,264.8l6.8,18.6h17.6l-6.8-18.6h-17.6ZM765.9,264.8l6.8,18.6,60.5-60.1-6.8-18.6-60.5,60.1ZM799,248.4l6.8,18.6h36.1l-6.8-18.6h-36.1ZM838.6,264.8l6.8,18.6h17.5l-6.8-18.6h-17.5ZM856.1,264.8l6.8,18.6-14.6-74.2-6.8-18.6,14.6,74.2ZM748.3,264.8h17.6l60.5-60.1,5.8,29h-19.4l-13.8,14.7h36.1l3.4,16.4h17.5l-14.6-74.2h-19.2l-74,74.2h.1Z" />
  </g>
  <g id="ddf69aa0-9c6a-4f63-b827-fb4fbf8edc5b">
    <g id="ff98dc86-83bc-4340-8620-2bbc73daaae1">
      <path class="st7" d="M266.1,265c-4.3,0-7-1.2-8-3.7s-.3-6.2,2.2-11.3h66c2.4,0,4.5-.6,6.2-1.8,1.5-1.2,2.9-3,4.2-5.6,1.1-2.5,1.4-4.3.9-5.6s-1.9-1.9-4.2-1.9h-44.1c-7.3,0-12-1.9-14-5.6-2-3.7-1.1-9.3,2.5-16.7s8.2-13,13.8-16.7c5.6-3.7,12-5.6,19.2-5.6h50.5c4.3,0,7,1.2,8,3.7,1.1,2.5.4,6.2-2,11.3h-64.9c-2.3,0-4.3.6-6,1.8s-3.1,3-4.3,5.6c-1.2,2.5-1.6,4.3-1.1,5.6.6,1.3,2,1.9,4.2,1.9h44.1c7.3,0,11.9,1.9,13.9,5.6,2,3.7,1.3,9.3-2.2,16.7s-8,13-13.6,16.7-12,5.6-19.4,5.6h-51.9ZM361.8,265.1c-4.2,0-6.9-1.2-8.1-3.6-1.1-2.4-.5-5.8,1.6-10.3l22.1-46.8c2-4.5,4.7-8,8-10.3,3.4-2.4,7.2-3.6,11.4-3.6h67.2c4.2,0,6.8,1.2,8,3.6,1.1,2.4.7,5.8-1.4,10.3l-21.3,46.8c-2,4.5-4.7,8-8.1,10.3-3.3,2.4-7.1,3.6-11.4,3.6h-68ZM430,250.3c1.7,0,3.1-.4,4.3-1.3,1.2-.9,2.2-2.1,3-3.7l15.9-34.7c.7-1.6.9-2.9.4-3.7-.4-.9-1.4-1.3-2.9-1.3h-54.3c-1.5,0-2.8.4-4.1,1.3-1.2.9-2.3,2.1-3,3.7l-16.2,34.7c-.7,1.6-.8,2.9-.5,3.7.3.9,1.3,1.3,2.9,1.3h54.6,0ZM487.3,190.7h14.7l-26.6,59.3h69.6c-2.3,5-5,8.7-8.3,11.2-3.3,2.4-7.1,3.7-11.4,3.7h-71.6l33.6-74.1h0ZM618.5,190.6h19.1l12,74.2h-17.6l-2.7-16.4h-36.2l14.4-14.7h19.3l-4.8-29-62.6,60.1h-17.8l76.9-74.2h0ZM684.6,197.4l.2-.6c.8-2,1.9-3.5,3.4-4.5s3.1-1.5,4.8-1.5h9.1l34.1,53.3,21.7-53.3h14.8l-30,74.1h-14.9l-43.1-67.4h0ZM675.2,219.8l8.9,14.1-13,30.9h-14.9l19-45h0ZM822.3,190.6h19.2l14.6,74.2h-17.5l-3.4-16.4h-36.1l13.8-14.7h19.4l-5.8-29-60.5,60.1h-17.6l74-74.2h-.1Z"/>
    </g>
  </g>
  <g id="e5c8c223-7ea9-4b97-b24b-0978808a2572">
    <path class="st7" d="M-6.1-349.5"/>
  </g>
  <g id="_x31_7795a2a-f2a5-4be4-af0d-3026e944e016">
    <path class="st7" d="M-6.1-349.5"/>
  </g>
  <g id="_x34_7f32196-5813-4726-aa5a-c51fbe90f67e">
    <path class="st2" d="M301.4,354.6l6.8,18.6h80.1l-6.8-18.6h-80.1ZM381.5,354.6l6.8,18.6,6.3-14.9-6.8-18.6-6.3,14.9ZM354.7,339.7l6.8,18.6,12.7-29.8-6.8-18.6-12.7,29.8ZM301.4,354.6h80.1l6.3-14.9h-33.1l12.7-29.8h-13.9l-12.7,29.8h-33l-6.4,14.9ZM327.1,295.1l6.8,18.6h79.4l-6.8-18.6h-79.4ZM406.5,295.1l6.8,18.6,6.3-14.9-6.8-18.6-6.3,14.9ZM327.1,295.1h79.4l6.3-14.9h-79.3l-6.4,14.9ZM456.6,354.6l6.8,18.6h13.9l-6.8-18.6h-13.9ZM470.5,354.6l6.8,18.6,30.6-74.4-6.8-18.6-30.6,74.4ZM418.9,286.9l6.8,18.6,37.7,67.7-6.8-18.6-37.7-67.7h0ZM456.6,354.6h13.9l30.6-74.4h-14l-21.9,53.5-29.8-53.5h-8.6c-1.6,0-3,.5-4.4,1.5s-2.5,2.5-3.3,4.5l-.2.7,37.7,67.7h0ZM390.5,354.6l6.8,18.6h13.9l-6.8-18.6h-13.9ZM404.3,354.6l6.8,18.6,13-31-6.8-18.6-13,31ZM390.5,354.6h13.9l13-31-7.8-14.1-19.1,45.2h0ZM503.1,295.1l6.8,18.6h79.4l-6.8-18.6h-79.4ZM582.4,295.1l6.8,18.6,5.9-14.9-6.8-18.6-5.9,14.9ZM503.1,295.1h79.4l5.9-14.9h-79.3l-6,14.9h0ZM511.7,354.6l6.8,18.6h13.9l-6.8-18.6h-13.9ZM525.6,354.6l6.8,18.6,18.1-44.6-6.8-18.6-18.1,44.6ZM511.7,354.6h13.9l18.1-44.6h-13.8l-18.2,44.6ZM567.6,354.6l6.8,18.6h80l-6.8-18.6h-80ZM647.6,354.6l6.8,18.6,6-14.9-6.8-18.6-5.9,14.9h0ZM587.4,339.7l6.8,18.6,6-14.9-6.8-18.6-6,14.9ZM593.4,324.8l6.8,18.6h66l-6.8-18.6h-66ZM659.4,324.8l6.8,18.6,5.8-14.9-6.8-18.6-5.8,14.9ZM567.6,354.6h80l5.9-14.9h-66.2l6-14.9h66l5.8-14.9h-79.6l-17.9,44.6h0ZM670.9,295.1l6.8,18.6,5.7-14.9-6.8-18.6-5.6,14.9h-.1ZM591.4,295.1l6.8,18.6h79.5l-6.8-18.6h-79.5ZM670.9,295.1l5.6-14.9h-67.1c-4,0-7.4,1.2-10.4,3.7-3,2.4-5.6,6.2-7.6,11.2h79.5ZM657.5,354.6l6.8,18.6h13.9l-6.8-18.6h-13.9ZM671.4,354.6l6.8,18.6,8.9-23.2-6.8-18.6-8.9,23.2ZM680.3,331.3l6.8,18.6h43.6l-6.8-18.6h-43.6ZM723.9,331.3l6.8,18.6c3.1,0,5.1.9,6.1,2.6l-6.8-18.6c-1-1.7-3-2.6-6.1-2.6ZM730,334l6.8,18.6c0,.2.2.4.3.6l-6.8-18.6c0-.2-.2-.4-.3-.6ZM724.6,354.6l6.8,18.6h13.8l-6.8-18.6h-13.8ZM738.3,354.6l6.8,18.6,4.8-12.6-6.8-18.6-4.8,12.5h0ZM743.1,342l6.8,18.6c1.5-3.9,2.3-7.4,2.5-10.4l-6.8-18.6c-.2,3-1,6.5-2.5,10.4ZM745.6,331.6l6.8,18.6c.2-2.7,0-5-.7-6.9l-6.8-18.6c.7,1.9.9,4.3.7,6.9ZM744.6,323.9l6.8,18.6c2.5-2.1,4.7-4.7,6.8-7.7l-6.8-18.6c-2.1,3-4.3,5.6-6.8,7.7ZM751.4,316.2l6.8,18.6c2-3,3.8-6.5,5.5-10.4l-6.8-18.6c-1.6,3.9-3.5,7.4-5.5,10.4ZM756.9,305.8l6.8,18.6c2.7-7.5,3.2-13.4,1.7-17.7l-6.8-18.6c1.6,4.3,1,10.2-1.7,17.7ZM680.6,295.1l6.8,18.6h57.1l-6.8-18.6h-57.1ZM737.7,295.1l6.8,18.6c3.1,0,5.1.8,6.1,2.6l-6.8-18.6c-.9-1.7-3-2.6-6.1-2.6ZM743.7,297.6l6.8,18.6c0,.1,0,.3.2.4l-6.8-18.6c0-.1,0-.3-.2-.4ZM657.5,354.6h13.9l8.9-23.2h43.6c3.1,0,5.1.9,6.1,2.6,0,.2.2.4.3.6.6,1.7.3,4.2-.9,7.5l-4.7,12.5h13.8l4.8-12.5c1.5-3.9,2.3-7.4,2.5-10.4.2-2.7,0-5-.7-6.9,0-.3-.2-.5-.3-.8,2.5-2.1,4.7-4.7,6.8-7.7,2-3,3.8-6.5,5.5-10.4,2.7-7.5,3.2-13.4,1.7-17.7-.2-.5-.4-1-.7-1.5-2.4-4.4-7.1-6.6-13.9-6.6h-45.7c-3.9,0-7.3,1.2-10.2,3.7-3.1,2.5-5.6,6.3-7.5,11.4h57.1c3.1,0,5.1.9,6.1,2.6,0,.1,0,.3.2.4.6,1.7.3,4.3-.9,7.7-1.4,3.7-3.2,6.4-5.5,8.1-2.2,1.7-4.8,2.6-7.9,2.6h-57.4l-14.7,38.1h-.3ZM814.2,354.6l6.8,18.6h14l-6.8-18.6h-14ZM828.2,354.6l6.8,18.6,27-74.4-6.8-18.6-27,74.4ZM773.5,286.9l6.8,18.6,40.7,67.7-6.8-18.6-40.7-67.7h0ZM814.2,354.6h14l27-74.4h-13.5l-19.6,53.5-32.3-53.5h-8.5c-1.6,0-3,.5-4.3,1.5s-2.3,2.5-3,4.5l-.3.7,40.7,67.7h-.2ZM748.1,354.6l6.8,18.6h13.7l-6.8-18.6h-13.7ZM761.8,354.6l6.8,18.6,11.8-31-6.8-18.6-11.8,31ZM748.1,354.6h13.7l11.8-31-8.5-14.1-16.9,45.2h0ZM837.9,354.6l6.8,18.6h80.1l-6.8-18.6h-80.1ZM918,354.6l6.8,18.6,5.3-14.9-6.8-18.6-5.3,14.9ZM857.2,339.7l6.8,18.6,5.4-14.9-6.8-18.6-5.4,14.9ZM862.6,324.8l6.8,18.6h66l-6.8-18.6h-66ZM928.6,324.8l6.8,18.6,5.2-14.9-6.8-18.6-5.2,14.9ZM837.9,354.6h80.1l5.3-14.9h-66l5.4-14.9h66l5.2-14.9h-79.6l-16.3,44.6h-.1ZM939.1,295.1l6.8,18.6,5.2-14.9-6.8-18.6-5.2,14.9ZM859.6,295.1l6.8,18.6h79.5l-6.8-18.6h-79.5ZM939.1,295.1l5.2-14.9h-67.1c-4,0-7.5,1.2-10.5,3.7-2.9,2.4-5.3,6.2-7.2,11.2h79.6ZM948,295.1l6.8,18.6h79.4l-6.8-18.6h-79.4,0ZM1027.5,295.1l6.8,18.6,5.1-14.9-6.8-18.6-5.1,14.9ZM948,295.1h79.4l5.1-14.9h-79.4l-5.2,14.9h.1ZM960,354.6l6.8,18.6h13.8l-6.8-18.6h-13.8ZM973.9,354.6l6.8,18.6,15.6-44.6-6.8-18.6-15.6,44.6ZM960,354.6h13.8l15.6-44.6h-13.8l-15.6,44.6Z"/>
  </g>
  <g id="f5ae0db5-5d25-4ee6-ae42-4e07eaad8b46">
    <g id="bf6f64d1-86e7-4473-a665-3154bdc7bb66">
      <path class="st7" d="M307.8,339.7h33l12.7-29.8h13.9l-12.7,29.8h33.1l-6.3,14.9h-80.1l6.4-14.9ZM333.5,280.2h79.3l-6.3,14.9h-79.4l6.4-14.9ZM418.9,286.9l.2-.7c.8-2,1.9-3.5,3.3-4.5,1.3-1,2.8-1.5,4.4-1.5h8.6l29.8,53.5,21.9-53.5h14l-30.6,74.4h-13.9l-37.7-67.7h0ZM409.5,309.4l7.8,14.1-13,31h-13.9l19.1-45.2h0ZM509.1,280.2h79.3l-5.9,14.9h-79.4l6-14.9ZM529.9,310h13.8l-18.1,44.6h-13.9l18.2-44.6ZM585.5,310h79.6l-5.8,14.9h-66l-6,14.9h66.2l-5.9,14.9h-80l17.9-44.6h0ZM591.4,295.1c2-5,4.5-8.8,7.6-11.2,3-2.4,6.4-3.7,10.4-3.7h67.1l-5.6,14.9h-79.5ZM672.2,316.5h57.4c3.1,0,5.7-.8,7.9-2.6,2.3-1.7,4.1-4.4,5.5-8.1,1.3-3.7,1.6-6.4.7-8.1-.9-1.7-3-2.6-6.1-2.6h-57.1c1.9-5.1,4.4-8.9,7.5-11.4,2.9-2.4,6.3-3.7,10.2-3.7h45.7c6.9,0,11.5,2.2,13.9,6.6,2.3,4.4,2,10.8-1,19.2-1.6,3.9-3.5,7.4-5.5,10.4-2.1,3-4.3,5.6-6.8,7.7,1,2.1,1.3,4.7,1,7.7-.2,3-1,6.5-2.5,10.4l-4.8,12.5h-13.8l4.7-12.5c1.4-3.7,1.6-6.4.7-8.1-1-1.7-3-2.6-6.1-2.6h-43.6l-8.9,23.2h-13.9l14.7-38.1h.2ZM773.5,286.9l.3-.7c.7-2,1.7-3.5,3-4.5s2.7-1.5,4.3-1.5h8.5l32.3,53.5,19.6-53.5h13.5l-27,74.4h-14l-40.7-67.7h.2ZM765.1,309.4l8.5,14.1-11.8,31h-13.7l16.9-45.2h0ZM854.3,310h79.6l-5.2,14.9h-66l-5.4,14.9h66l-5.3,14.9h-80.1l16.3-44.6h.1ZM859.6,295.1c1.9-5,4.3-8.8,7.2-11.2,3-2.4,6.5-3.7,10.5-3.7h67.1l-5.2,14.9h-79.6ZM953.2,280.2h79.4l-5.1,14.9h-79.4l5.2-14.9h0ZM975.7,310h13.8l-15.6,44.6h-13.8l15.6-44.6Z"/>
    </g>
  </g>
  <g id="_x35_61e626b-9c4d-4790-ab41-5ba1c1ecaab1">
    <path class="st7" d="M-6.1-349.5"/>
  </g>
  <g id="b35aecde-c361-487f-9fbf-1329df5c5de3">
    <path class="st7" d="M-6.1-349.5"/>
  </g>
  <g id="be4469fb-86c5-48fc-9910-6c6d789bf26d">
    <g>
      <g id="_x37_4fe4e1a-1ae6-4e05-8d92-faf072b9df05">
        <path class="st5" d="M1069.2,350.5c0,0,.3.2.4.3.3.2.6.4.9.5,0,0,.3.2.4.3.3.2.6.4.8.6,0,.1.3.2.4.3.3.2.5.4.8.6,0,.1.3.2.4.3.3.2.5.4.8.7,0,.1.3.2.4.3.2.2.5.5.7.7s.2.2.4.4c.2.2.5.5.7.7.3.4.7.8,1,1.2,0,.1.2.3.3.4.2.3.4.5.6.8,0,.1.2.3.3.4.2.3.4.5.6.8,0,.1.2.3.3.4.2.3.4.6.5.8,0,.1.2.3.3.4.2.3.3.6.5.9,0,.1.2.3.2.4,0,.3.3.6.4.9,0,.1,0,.3.2.4,0,.3.3.6.4.9,0,.1,0,.3.2.5,0,.3.2.6.4.9.2.5.3.9.5,1.4,0,.2,0,.3.2.5,0,.3.2.6.3,1,0,.2,0,.3,0,.5,0,.3,0,.6.2,1,0,.2,0,.3,0,.5,0,.3,0,.7.2,1v.5c0,.3,0,.7,0,1v6.5c0,.3,0,.7,0,1v.5c0,.3,0,.7-.2,1v.5c0,.3,0,.7-.2,1,0,.2,0,.3,0,.5,0,.3-.2.7-.3,1,0,.2,0,.3,0,.5,0,.3-.2.7-.3,1,0,.2,0,.3-.2.5,0,.3-.2.6-.4,1,0,.2,0,.3-.2.5,0,.3-.3.6-.4.9-.2.5-.5.9-.7,1.4,0,.2-.2.3-.2.5-.2.3-.3.6-.5.9,0,.2-.2.3-.3.4-.2.3-.4.6-.5.9,0,.1-.2.3-.3.4-.2.3-.4.6-.6.8,0,.1-.2.3-.3.4-.2.3-.4.5-.6.8,0,.1-.2.3-.3.4-.2.3-.4.5-.7.8,0,.1-.2.3-.3.4-.2.2-.5.5-.7.7s-.2.2-.4.4c-.2.2-.5.5-.7.7-.4.3-.8.7-1.2,1,0,.1-.3.2-.4.3-.3.2-.5.4-.8.6,0,.1-.3.2-.4.3-.3.2-.5.4-.8.6,0,0-.3.2-.4.3-.3.2-.6.4-.8.5,0,0-.3.2-.4.3-.3.2-.6.3-.9.5,0,0-.3.2-.4.2-.3.2-.6.3-.9.4,0,0-.3.1-.4.2-.3.1-.6.3-.9.4-.2,0-.3.1-.5.2-.3.1-.6.2-.9.4-.5.2-.9.3-1.4.5-.2,0-.3.1-.5.2-.3,0-.6.2-1,.3-.2,0-.3,0-.5.1-.3,0-.6.1-1,.2-.2,0-.3,0-.5.1-.3,0-.6.1-1,.2h-.5c-.3,0-.7,0-1,.1h-6.5c-.3,0-.7,0-1-.1h-.5c-.3,0-.7-.1-1-.2h-.5c-.3,0-.7-.1-1-.2-.2,0-.3,0-.5-.1-.3,0-.7-.2-1-.3-.2,0-.3,0-.5-.1-.3-.1-.6-.2-1-.3-.2,0-.3-.1-.5-.2-.3-.1-.6-.2-1-.4-.2,0-.3-.1-.5-.2l-.9-.4c-.2,0-.3-.1-.5-.2-.5-.2-.9-.5-1.4-.7-.3-.2-.6-.3-.9-.5s-.3-.2-.4-.3c-.3-.2-.6-.4-.9-.5,0,0-.3-.2-.4-.3-.3-.2-.6-.4-.8-.6,0,0-.3-.2-.4-.3-.3-.2-.5-.4-.8-.6,0-.1-.3-.2-.4-.3-.3-.2-.5-.4-.8-.7,0-.1-.3-.2-.4-.3-.2-.2-.5-.5-.7-.7s-.2-.2-.4-.4c-.2-.3-.5-.5-.7-.7-.3-.4-.7-.8-1-1.2,0-.1-.2-.3-.3-.4-.2-.3-.4-.5-.6-.8,0-.1-.2-.3-.3-.4-.2-.3-.4-.5-.6-.8,0-.1-.2-.3-.3-.4-.2-.3-.4-.6-.5-.8,0-.1-.2-.3-.3-.4-.2-.3-.3-.6-.5-.9,0-.1-.2-.3-.2-.4,0-.3-.3-.6-.4-.9,0-.1,0-.3-.2-.4,0-.3-.3-.6-.4-.9,0-.1,0-.3-.2-.5,0-.3-.2-.6-.4-.9-.2-.5-.3-.9-.5-1.4,0-.2,0-.3-.2-.5,0-.3-.2-.6-.3-1v-.5c-.2-.3-.3-.6-.3-1s0-.3,0-.5c0-.3,0-.7-.2-1v-.5c0-.3,0-.7,0-1v-6.5c0-.3,0-.7,0-1v-.5c0-.3,0-.7.2-1v-.5c0-.3,0-.7.2-1,0-.2,0-.3,0-.5,0-.3.2-.7.3-1,0-.2,0-.3,0-.5,0-.3.2-.6.3-1,0-.2,0-.3.2-.5,0-.3.2-.6.4-1,0-.2,0-.3.2-.5,0-.3.3-.6.4-.9.2-.5.5-.9.7-1.4,0-.2.2-.3.2-.5.2-.3.3-.6.5-.9,0-.2.2-.3.3-.4.2-.3.4-.6.5-.9,0-.1.2-.3.3-.4.2-.3.4-.6.6-.8,0-.1.2-.3.3-.4.2-.3.4-.5.6-.8,0-.1.2-.3.3-.4.2-.3.4-.5.7-.8,0-.1.2-.3.3-.4.2-.2.5-.5.7-.7s.2-.2.4-.4c.2-.2.5-.5.7-.7.4-.3.8-.7,1.2-1,0-.1.3-.2.4-.3.3-.2.5-.4.8-.6,0-.1.3-.2.4-.3.3-.2.5-.4.8-.6,0,0,.3-.2.4-.3.3-.2.6-.4.8-.5,0,0,.3-.2.4-.3.3-.2.6-.3.9-.5,0,0,.3-.2.4-.2.3-.2.6-.3.9-.4,0,0,.3-.1.4-.2.3-.1.6-.3.9-.4.2,0,.3-.1.5-.2.3-.1.6-.2.9-.4.5-.2.9-.3,1.4-.5.2,0,.3-.1.5-.2.3,0,.6-.2,1-.3.2,0,.3,0,.5-.1.3,0,.6-.1,1-.2.2,0,.3,0,.5-.1.3,0,.6-.1,1-.2h.5c.3,0,.7,0,1-.1h6.5c.3,0,.7,0,1,.1h.5c.3,0,.7.1,1,.2h.5c.3,0,.7.1,1,.2.2,0,.3,0,.5.1.3,0,.7.2,1,.3.2,0,.3,0,.5.1.3.1.6.2,1,.3.2,0,.3.1.5.2.3.1.6.2,1,.4.2,0,.3.1.5.2.3.1.6.3.9.4.5.2.9.5,1.4.7.2,0,.3.2.5.2.3.2.6.3.9.5h0ZM1025.6,380.7v.4c0,.3,0,.6,0,.9v.4c0,.3,0,.6.2.9v.4c0,.3.2.6.2.9s0,.3,0,.4c0,.3.2.6.3.9,0,.1,0,.3,0,.4,0,.3.2.6.3.8,0,.1,0,.3.2.4,0,.3.2.6.3.8,0,.1,0,.3.2.4,0,.3.3.5.4.8.2.4.4.8.6,1.2,0,.1,0,.3.2.4.2.3.3.5.5.8,0,.1.2.3.2.4.2.3.3.5.5.8,0,.1.2.3.3.4.2.2.4.5.5.7l.3.4c.2.2.4.5.6.7,0,.1.2.2.3.4.2.2.4.5.6.7s.2.2.3.3c.2.2.4.4.6.6s.2.2.3.3c.2.2.4.4.7.6,0,0,.2.2.3.3.2.2.5.4.7.6,0-.2-.3-.4-.4-.6-.2-.4-.5-.9-.7-1.3,0-.2-.2-.4-.3-.6-.2-.4-.4-.9-.6-1.3,0-.2-.2-.4-.3-.6-.2-.4-.3-.9-.5-1.3,0-.2-.2-.4-.2-.7,0-.4-.3-.9-.4-1.3,0-.2,0-.4-.2-.7,0-.4-.2-.9-.3-1.3,0-.2,0-.4,0-.7,0-.4-.2-.9-.2-1.3v-.7c0-.4,0-.9,0-1.3v-2c-1.9-1-3.7-1.9-5.6-2.9h0v.2ZM1061.7,399.3c-.2.1-.4.3-.5.4-.4.2-.7.5-1.1.7-.2.1-.4.2-.6.3-.4.2-.8.4-1.2.6-.2,0-.4.2-.6.3-.4.2-.8.4-1.2.5-.2,0-.4.2-.6.3-.4.2-.8.3-1.3.5-.2,0-.4.1-.6.2-.4.1-.9.3-1.3.4-.2,0-.4.1-.7.2-.5.1-.9.2-1.4.3-.2,0-.5,0-.7.1-.5,0-.9.2-1.4.2s-1.5.2-2.2.3h0c0,0,.3,0,.4.1.3,0,.6.1.9.2h.4c.3,0,.6.1.9.2h.5c.3,0,.6,0,.9.1h5.6c.5,0,.9,0,1.4-.1h.4c.3,0,.6,0,.9-.1h.4c.3,0,.6-.1.9-.2h.4c.3,0,.6-.1.9-.2,0,0,.3,0,.4-.1.3,0,.6-.2.9-.3,0,0,.3,0,.4-.1.3-.1.6-.2.8-.3,0,0,.3-.1.4-.2.3-.1.6-.2.8-.3,0,0,.3-.1.4-.2.3-.1.5-.3.8-.4.4-.2.8-.4,1.2-.6-1.9-1-3.7-1.9-5.6-2.9h0ZM1047.5,392c-1.8,3.5-3.6,7-5.4,10.5h3.2c.5,0,1,0,1.6-.1h.8c.5,0,1-.2,1.6-.2.8-.2,1.5-.3,2.3-.5.2,0,.5-.1.7-.2.5-.1.9-.3,1.4-.4.2,0,.5-.2.7-.2.4-.2.9-.4,1.3-.5.2,0,.4-.2.7-.3.4-.2.9-.4,1.3-.6.6-.4,1.2-.7,1.9-1.1-3.9-2-7.9-4.1-11.8-6.1h0l-.3-.3ZM1033.6,384.8v.7c0,.5,0,.9.2,1.4,0,.2,0,.5,0,.7,0,.5.2.9.3,1.4,0,.2,0,.5.2.7,0,.5.3.9.4,1.4.2.7.5,1.4.7,2,0,.2.2.5.3.7.2.5.4.9.6,1.4,0,.2.2.5.3.7.2.5.5.9.7,1.4,0,.2.3.5.4.7.3.4.6.9.8,1.3,0,.2.3.4.4.7.3.4.6.8.9,1.3,1.8-3.5,3.6-6.9,5.4-10.4-3.9-2-7.9-4.1-11.8-6.1h0ZM1036.9,369.8c0,.2-.2.3-.3.5-.2.3-.3.7-.5,1,0,.2-.2.3-.2.5,0,.3-.3.7-.4,1,0,.2,0,.3-.2.5,0,.4-.2.7-.4,1.1-.2.5-.3,1.1-.5,1.6,0,.2,0,.3,0,.5,0,.3,0,.7-.2,1,0,.2,0,.3,0,.5,0,.3,0,.7-.2,1v.5c0,.3,0,.7,0,1,0,.5,0,1,0,1.5h0c4.3,2.2,8.6,4.4,12.9,6.6,1.9-3.7,3.8-7.4,5.7-11.1-5.1-2.6-10.2-5.2-15.3-7.9v.2ZM1071.7,387.8c0,.2-.2.3-.2.5-.2.3-.4.6-.5,1,0,.2-.2.3-.3.5-.2.3-.4.6-.6.9,0,.2-.2.3-.3.5-.2.3-.4.6-.6.9-.3.4-.7.9-1,1.3,0,.1-.2.3-.3.4-.2.3-.4.5-.7.8,0,.1-.2.3-.3.4-.2.2-.5.5-.7.7s-.2.2-.4.4c-.2.2-.5.5-.7.7-.4.3-.8.7-1.1,1h0c2,1,3.9,2,5.9,3,0-.1.3-.2.4-.3.3-.2.6-.4.9-.6,0-.1.3-.2.4-.3.3-.2.5-.5.8-.7,0-.1.3-.2.4-.3.3-.2.5-.5.8-.7.4-.4.7-.8,1.1-1.1,0-.1.3-.3.4-.4.2-.3.5-.6.7-.8,0-.1.2-.3.4-.4.2-.3.4-.6.7-.9,0-.1.2-.3.3-.4.2-.3.4-.6.6-.9.3-.5.6-.9.8-1.4-2.2-1.2-4.5-2.3-6.7-3.5h0l-.2-.3ZM1028.1,365.3c0,.2-.2.3-.2.5,0,.3-.3.7-.4,1,0,.2,0,.3-.2.5,0,.3-.2.7-.4,1,0,.2,0,.3-.2.5,0,.4-.2.7-.3,1.1,0,.5-.3,1.1-.4,1.6,0,.2,0,.3,0,.5,0,.4,0,.7-.2,1.1v.5c0,.4,0,.7,0,1.1v3.2c2,1,3.9,2,5.9,3v-.5c0-.3,0-.7,0-1v-.5c0-.3,0-.7.2-1v-.5c0-.3,0-.7.2-1,0-.5.3-1,.4-1.5,0-.2,0-.4,0-.5,0-.3.2-.7.3-1,0-.2,0-.3.2-.5,0-.3.3-.7.4-1,0-.2,0-.3.2-.5,0-.3.3-.7.4-1,.2-.5.5-1,.7-1.5-2.2-1.2-4.5-2.3-6.7-3.5h0ZM1054.3,378.8c-1.9,3.7-3.8,7.4-5.7,11.1,4.3,2.2,8.6,4.4,12.9,6.7,0-.1.3-.2.4-.3.3-.2.5-.4.8-.7,0-.1.3-.2.4-.3.3-.2.5-.5.7-.7s.2-.2.4-.4c.2-.2.5-.5.7-.7.3-.4.7-.8,1-1.2,0-.1.2-.3.4-.4.2-.3.5-.6.7-.9,0-.1.2-.3.3-.4.2-.3.4-.6.6-.9,0-.2.2-.3.3-.5.2-.3.4-.6.6-1,.3-.5.5-1,.8-1.5-5.1-2.6-10.2-5.2-15.3-7.9h0ZM1046,357.9c0,.1-.3.2-.4.3-.3.2-.5.4-.8.7,0,.1-.3.2-.4.3-.2.2-.5.5-.7.7s-.2.2-.4.4c-.2.2-.5.5-.7.7-.3.4-.7.8-1,1.2,0,.1-.2.3-.4.4-.2.3-.5.6-.7.9,0,.1-.2.3-.3.4-.2.3-.4.6-.6.9,0,.2-.2.3-.3.5-.2.3-.4.6-.6,1-.3.5-.5,1-.8,1.5h0c5.1,2.6,10.2,5.2,15.3,7.9,1.9-3.7,3.8-7.4,5.7-11.1-4.3-2.2-8.6-4.4-12.9-6.7h0ZM1076.2,373.4v.5c0,.3,0,.7,0,1v.5c0,.3,0,.7-.2,1v.5c0,.3,0,.7-.2,1,0,.5-.2,1-.4,1.5,0,.2,0,.4,0,.5,0,.3-.2.7-.3,1.1l-.2.5c0,.3-.3.7-.4,1,0,.2,0,.3-.2.5,0,.3-.3.7-.4,1-.2.5-.5,1-.7,1.5h0c2.2,1.2,4.5,2.3,6.7,3.5,0-.2.2-.3.2-.5,0-.3.3-.7.4-1,0-.2,0-.3.2-.5,0-.3.2-.7.4-1l.2-.5c0-.4.2-.7.3-1.1,0-.5.3-1.1.4-1.6,0-.2,0-.4,0-.5,0-.4,0-.7.2-1.1v-.5c0-.4,0-.7,0-1.1v-3.2c-2-1-3.9-2-5.9-3h0ZM1037.9,353.7c0,.1-.3.2-.4.3-.3.2-.6.4-.9.6,0,.1-.3.2-.4.3-.3.2-.5.5-.8.7,0,.1-.3.2-.4.3-.3.2-.5.5-.8.7-.4.4-.7.8-1.1,1.1,0,.1-.2.3-.4.4-.2.3-.5.6-.7.8,0,.1-.2.3-.3.4-.2.3-.4.6-.7.9,0,.1-.2.3-.3.4-.2.3-.4.6-.6.9,0,.2-.2.3-.3.5-.2.3-.4.6-.6,1,2.2,1.2,4.5,2.3,6.7,3.5,0-.2.2-.3.3-.5.2-.3.4-.6.5-1,0-.2.2-.3.3-.5.2-.3.4-.6.6-.9,0-.2.2-.3.3-.5.2-.3.4-.6.6-.9.3-.4.7-.9,1-1.3,0-.1.2-.3.3-.4.2-.3.5-.5.7-.8,0-.1.2-.3.3-.4.2-.2.5-.5.7-.7s.2-.2.4-.4c.2-.2.5-.5.7-.7.4-.3.8-.7,1.1-1-2-1-3.9-2-5.9-3h0v.2ZM1061.1,365.6c-1.9,3.7-3.8,7.4-5.7,11.1,5.1,2.6,10.2,5.2,15.3,7.9,0-.2.2-.3.3-.5l.5-1c0-.2.2-.3.2-.5,0-.3.3-.7.4-1,0-.2,0-.3.2-.5,0-.4.2-.7.4-1.1.2-.5.3-1.1.5-1.6,0-.2,0-.3,0-.5,0-.3,0-.7.2-1,0-.2,0-.3,0-.5,0-.3,0-.7.2-1v-.5c0-.3,0-.7,0-1v-1.5c-4.3-2.2-8.6-4.4-12.8-6.6v-.2ZM1060.8,349.6c-.3,0-.6-.1-.9-.2,0,0-.3,0-.4-.1-.3,0-.6-.1-.9-.2h-.4c-.3,0-.6,0-.9-.1h-5.6c-.5,0-.9,0-1.4.1h-.4c-.3,0-.6,0-.9.1h-.4c-.3,0-.6.1-.9.2h-.4c-.3,0-.6.1-.9.2,0,0-.3,0-.4.1-.3,0-.6.2-.9.3,0,0-.3,0-.4.1-.3.1-.6.2-.8.3,0,0-.3.1-.4.2-.3.1-.6.2-.8.3,0,0-.3.1-.4.2-.3.1-.5.3-.8.4,0,0-.3.1-.4.2-.3.1-.5.3-.8.4,1.9,1,3.7,1.9,5.6,2.9.2-.1.4-.3.5-.4.4-.2.7-.5,1.1-.7.2-.1.4-.2.6-.3.4-.2.8-.4,1.2-.6s.4-.2.6-.3c.4-.2.8-.4,1.2-.5.2,0,.4-.2.6-.3.4-.2.8-.3,1.3-.5.2,0,.4-.1.6-.2.4-.1.9-.3,1.3-.4.2,0,.4-.1.7-.2.5-.1.9-.2,1.4-.3.2,0,.5,0,.7-.1.5,0,.9-.1,1.4-.2.7,0,1.5-.2,2.2-.2,0,0-.3,0-.4-.1h0ZM1064.6,351.9h-2.4c-.5,0-1,0-1.6.1h-.8c-.5,0-1,.2-1.5.2-.8.2-1.5.3-2.3.5-.2,0-.5.1-.7.2-.5.1-.9.3-1.4.4-.2,0-.5.2-.7.2-.4.2-.9.4-1.3.5-.2,0-.4.2-.7.3-.4.2-.9.4-1.3.6-.2.1-.4.2-.6.3-.4.2-.8.5-1.2.7,3.9,2,7.9,4.1,11.8,6.1,1.8-3.5,3.6-7,5.4-10.5h-.8v.4ZM1062.1,363.5c3.9,2,7.8,4,11.7,6v-.7c0-.5,0-.9-.2-1.4,0-.2,0-.5,0-.7,0-.5-.2-.9-.3-1.4,0-.2,0-.5-.2-.7,0-.5-.3-.9-.4-1.4-.2-.7-.5-1.3-.7-2,0-.2-.2-.5-.3-.7-.2-.5-.4-.9-.6-1.4,0-.2-.2-.5-.3-.7-.2-.5-.5-.9-.7-1.4,0-.2-.3-.5-.4-.7-.3-.4-.5-.9-.8-1.3-.4-.6-.9-1.3-1.3-1.9-1.8,3.5-3.6,6.9-5.4,10.4h0ZM1072,355.7c.2.4.5.9.7,1.3,0,.2.2.4.3.6.2.4.4.9.6,1.3,0,.2.2.4.3.6.2.4.3.9.5,1.3,0,.2.2.4.2.7,0,.4.3.9.4,1.3,0,.2,0,.4.2.7,0,.4.2.9.3,1.3,0,.2,0,.4,0,.7,0,.4.2.9.2,1.3s0,.4,0,.7c0,.4,0,.9,0,1.3v2c1.9,1,3.8,1.9,5.6,2.9v-.5c0-.3,0-.6,0-.9v-.4c0-.3,0-.6-.2-.9v-.4c0-.3,0-.6-.2-.9,0-.1,0-.3,0-.4,0-.3-.2-.6-.3-.9,0-.1,0-.3,0-.4,0-.3-.2-.6-.3-.8,0-.1,0-.3-.2-.4,0-.3-.2-.6-.3-.8,0-.1,0-.3-.2-.4,0-.3-.3-.5-.4-.8-.2-.4-.4-.8-.6-1.2,0-.1,0-.3-.2-.4-.2-.3-.3-.5-.5-.8,0-.1-.2-.3-.2-.4-.2-.3-.3-.5-.5-.8,0-.1-.2-.3-.3-.4-.2-.2-.4-.5-.5-.7,0-.1-.2-.2-.3-.4-.2-.2-.4-.5-.6-.7,0-.1-.2-.2-.3-.4-.2-.2-.4-.5-.6-.7s-.2-.2-.3-.3c-.2-.2-.4-.4-.7-.6,0-.1-.2-.2-.3-.3-.2-.2-.5-.4-.7-.6-.4-.3-.7-.6-1.1-.9,0,.2.3.4.4.6h0Z"/>
      </g>
      <g id="be4469fb-86c5-48fc-9910-6c6d789bf26d-child-0">
        <path class="st0" d="M1039.6,404.6c-3.7-1.9-6.9-4.4-9.5-7.6-2.5-3.1-4.5-6.6-5.7-10.4-1.2-3.8-1.7-7.8-1.4-11.8.3-4.1,1.5-8.1,3.4-11.7,1.9-3.7,4.4-6.9,7.6-9.6,3.1-2.6,6.6-4.5,10.4-5.7s7.8-1.7,11.7-1.4c4.1.3,8.1,1.4,11.7,3.4,3.7,1.9,6.9,4.4,9.5,7.6,2.5,3.1,4.5,6.6,5.7,10.4s1.7,7.8,1.4,11.8c-.3,4.1-1.5,8.1-3.4,11.7-1.9,3.7-4.4,6.9-7.6,9.6-3.1,2.6-6.6,4.5-10.4,5.7s-7.8,1.7-11.7,1.4c-4.1-.3-8.1-1.4-11.7-3.3h0ZM1029.2,363.2l6.7,3.5c1-2,2.2-3.8,3.6-5.5,1.3-1.6,2.7-3.1,4.3-4.4l-5.9-3c-1.8,1.2-3.4,2.6-4.8,4.2-1.5,1.6-2.8,3.4-3.9,5.3h0ZM1025.4,377.9l5.9,3c.2-2.1.5-4.1,1.1-6.1.6-2.1,1.4-4.2,2.4-6.1l-6.7-3.5c-.9,2-1.6,4.1-2.1,6.3-.4,2.1-.6,4.2-.6,6.4h0ZM1040.2,352.2l5.6,2.9c4.3-3.1,9.5-4.9,15.4-5.4-3.5-1-7.2-1.2-10.8-.8-3.6.4-7,1.5-10.2,3.3ZM1035.8,399.3c-3.1-5.1-4.6-10.4-4.7-15.7l-5.6-2.9c.4,3.6,1.6,7.1,3.3,10.2,1.7,3.2,4.1,6.1,7,8.4h0ZM1038,367.7l15.3,7.9,5.7-11.1-12.9-6.7c-1.6,1.3-3.1,2.7-4.4,4.3-1.4,1.7-2.7,3.6-3.7,5.5h0ZM1033.6,382.2l12.9,6.6,5.7-11.1-15.3-7.9c-1,2-1.8,4.1-2.4,6.2-.5,2-.8,4-.9,6.1h0ZM1048.2,356.3l11.8,6.1,5.4-10.5c-3.1,0-6.3.3-9.3,1-2.8.7-5.5,1.8-7.9,3.4ZM1040,401.3l5.4-10.4-11.8-6.1c.2,2.9.8,5.7,1.9,8.4,1.2,2.9,2.7,5.6,4.6,8.1h0ZM1062.1,363.5l11.7,6c-.2-2.9-.8-5.7-1.8-8.3-1.1-2.9-2.7-5.6-4.5-8.1l-5.4,10.4h0ZM1055.4,376.7l15.3,7.9c1-2,1.8-4,2.4-6.2.5-2,.8-4.1.9-6.1l-12.8-6.6-5.7,11.1h-.1ZM1048.6,389.9l12.9,6.7c1.6-1.3,3.1-2.7,4.4-4.3,1.4-1.7,2.7-3.6,3.7-5.6l-15.3-7.9-5.7,11.1h0ZM1042.1,402.4c3.1,0,6.3-.3,9.3-1,2.8-.7,5.4-1.8,7.9-3.4l-11.8-6.1-5.4,10.5ZM1076.3,370.8l5.6,2.9c-.4-3.6-1.6-7.1-3.3-10.3-1.8-3.2-4.2-6.1-7-8.4,3.1,5.1,4.6,10.4,4.7,15.8h0ZM1046.3,404.7c3.5,1,7.2,1.2,10.8.8,3.6-.4,7-1.6,10.2-3.3l-5.6-2.9c-4.4,3.1-9.5,4.9-15.4,5.4h0ZM1072.8,385.7l6.7,3.5c.9-2,1.7-4.1,2.1-6.3.4-2.1.6-4.2.6-6.4l-5.9-3c-.2,2.1-.5,4.1-1.1,6.1-.6,2.1-1.4,4.2-2.4,6.1h0ZM1063.8,397.7l5.9,3c1.8-1.2,3.4-2.6,4.8-4.2,1.5-1.6,2.8-3.4,3.9-5.3l-6.7-3.5c-1,2-2.2,3.8-3.6,5.5-1.3,1.6-2.7,3.1-4.3,4.4h0Z"/>
      </g>
    </g>
  </g>
  <g id="_x39_886cdaf-f7a9-4335-84c1-cd7b3713081e">
    <path class="st1" d="M747.9,418.7l.8,2.3h11.3l-.8-2.3h-11.3ZM759.2,418.7l.8,2.3,33.9-24.3-.8-2.3-33.9,24.3ZM733.9,394.3l.8,2.3,14,24.3-.8-2.3-14-24.3ZM747.9,418.7h11.3l33.9-24.3h-10.4l-27.1,19.5-11.3-19.5h-10.4l14,24.3ZM785.9,418.6l.8,2.3h49.5l-.8-2.3h-49.5ZM835.5,418.6l.8,2.3,1.9-4.8-.8-2.3-1.9,4.8ZM796.5,413.8l.8,2.3,2-4.9-.8-2.3-2,4.9ZM798.4,408.9l.8,2.3h40.8l-.8-2.3h-40.8ZM839.3,408.9l.8,2.3,1.9-4.8-.8-2.3-1.9,4.8ZM785.9,418.6h49.5l1.9-4.8h-40.9l2-4.9h40.8l1.9-4.8h-49.2l-6,14.6h0ZM843,399.2l.8,2.3,1.9-4.9-.8-2.3-1.9,4.9ZM793.9,399.2l.8,2.3h49.1l-.8-2.3h-49.1ZM843,399.2l1.9-4.9h-41.6c-2.5,0-4.5.4-6.1,1.2-1.6.8-2.7,2-3.4,3.7h49.2ZM841.5,418.6l.8,2.3h8.6l-.8-2.3h-8.6ZM850.1,418.6l.8,2.3,2.9-7.6-.8-2.3-2.9,7.6ZM853,411l.8,2.3h27l-.8-2.3h-27ZM879.9,411l.8,2.3c1.9,0,3.3.3,4,.9l-.8-2.3c-.8-.6-2.1-.9-4-.9ZM884,411.9l.8,2.3c.3.2.5.5.7.8l-.8-2.3c0-.3-.3-.6-.7-.8ZM883,418.6l.8,2.3h8.5l-.8-2.3h-8.5ZM891.5,418.6l.8,2.3,1.5-4.1-.8-2.3-1.5,4.1ZM893.1,414.5l.8,2.3c.4-1.3.6-2.4.4-3.4l-.8-2.3c.2,1,0,2.1-.4,3.4ZM893.5,411.1l.8,2.3c0-.2,0-.4-.2-.6l-.8-2.3c0,.2,0,.4.2.6ZM892,408.6l.8,2.3c1.3-.7,2.4-1.5,3.3-2.5l-.8-2.3c-.9,1-2.1,1.8-3.3,2.5ZM895.3,406.1l.8,2.3c.9-1,1.6-2.1,2.1-3.4l-.8-2.3c-.5,1.3-1.2,2.4-2.1,3.4ZM897.4,402.7l.8,2.3c.6-1.6.6-2.9.2-4.1l-.8-2.3c.4,1.1.3,2.5-.2,4.1ZM849,399.2l.8,2.3h35.3l-.8-2.3h-35.3ZM884.4,399.2l.8,2.3c1.9,0,3.2.3,4,.8l-.8-2.3c-.8-.5-2.1-.8-4-.8ZM888.4,400l.8,2.3c.3.2.5.5.7.8l-.8-2.3c0-.3-.3-.6-.7-.8ZM841.5,418.6h8.6l2.9-7.6h27c1.9,0,3.3.3,4,.9.3.2.5.5.7.8.2.5,0,1.1,0,1.8l-1.5,4.1h8.5l1.5-4.1c.4-1.3.6-2.4.4-3.4,0-.2,0-.4-.2-.6-.3-.7-.7-1.3-1.3-1.9,1.3-.7,2.4-1.5,3.3-2.5.9-1,1.6-2.1,2.1-3.4.6-1.6.7-2.9.2-4.1-.3-.9-.9-1.6-1.8-2.2-2-1.4-5.2-2.1-9.5-2.1h-28c-2.5,0-4.5.4-6,1.2-1.6.8-2.7,2-3.4,3.7h35.3c1.9,0,3.2.3,4,.8.3.2.5.5.7.8.2.5,0,1.1,0,1.8-.4,1.2-1.3,2.1-2.5,2.6-1.2.6-2.7.8-4.6.8h-35.5l-4.8,12.4v.2ZM896.6,418.6l.8,2.3h8l-.8-2.3h-8ZM904.6,418.6l.8,2.3,1.8-4.8-.8-2.3-1.8,4.8ZM896.6,418.6h8l1.8-4.8h-8.2l-1.6,4.8ZM910.1,418.6l.8,2.3h44.2l-.8-2.3h-44.2ZM954.3,418.6l.8,2.3,1.7-4.8-.8-2.3-1.7,4.8ZM938.2,413.8l.8,2.3,6.8-19.4-.8-2.3-6.8,19.4ZM915.7,403.5l.8,2.3,18.9-3.7-.8-2.3-18.9,3.7ZM910.1,418.6h44.2l1.7-4.8h-17.8l6.8-19.4h-8.4l-19.1,3.7-1.9,5.4,18.9-3.7-5,14h-17.7l-1.8,4.8h0Z" />
  </g>
  <g id="a31a4b8f-9ed1-4280-85c9-b1a6f86579a5">
    <g id="_x38_775ce79-4830-4cd1-9d00-55a0a9893135">
      <path class="st7" d="M733.9,394.3h10.4l11.3,19.5,27.1-19.5h10.4l-33.9,24.3h-11.3l-14-24.3ZM791.9,404.1h49.2l-1.9,4.8h-40.8l-2,4.9h40.9l-1.9,4.8h-49.5l6-14.6h0ZM793.9,399.2c.7-1.6,1.8-2.9,3.4-3.7s3.6-1.2,6.1-1.2h41.6l-1.9,4.9h-49.2ZM846.3,406.2h35.5c1.9,0,3.5-.3,4.6-.8,1.2-.6,2.1-1.4,2.5-2.6s.3-2.1-.5-2.7c-.8-.5-2.1-.8-4-.8h-35.3c.7-1.7,1.8-2.9,3.4-3.7,1.5-.8,3.6-1.2,6-1.2h28c4.3,0,7.5.7,9.5,2.1s2.6,3.5,1.5,6.3c-.5,1.3-1.2,2.4-2.1,3.4-.9,1-2.1,1.8-3.3,2.5.8.7,1.3,1.5,1.5,2.5s0,2.1-.4,3.4l-1.5,4.1h-8.5l1.5-4.1c.5-1.2.3-2.1-.5-2.6-.8-.6-2.1-.9-4-.9h-27l-2.9,7.6h-8.6l4.8-12.4h-.2ZM898.3,413.8h8.2l-1.8,4.8h-8l1.6-4.8ZM911.9,413.8h17.7l5-14-18.9,3.7,1.9-5.4,19.1-3.7h8.4l-6.8,19.4h17.8l-1.7,4.8h-44.2l1.8-4.8h0Z"/>
    </g>
  </g>
  <g id="_x37_0480902-fb2c-4916-af52-0542a8586dee" class="st8">
    <path class="st7" d="M-6.1-349.5"/>
  </g>
  <g id="_x31_b2fc1ac-69eb-4a18-afb5-dd49f01ae693" class="st8">
    <path class="st6" d="M-6.1-349.5"/>
  </g>
</svg>