<svg width="205" height="51" viewBox="0 0 205 51" fill="none" xmlns="http://www.w3.org/2000/svg">
<path d="M196.309 4.92969C196.309 3.27283 197.652 1.92969 199.309 1.92969H202C203.656 1.92969 205 3.27283 205 4.92969V47.254C205 48.9108 203.656 50.254 202 50.254H198.786C197.734 50.254 196.759 49.703 196.216 48.8019L178.988 20.2016C178.57 19.5072 177.503 19.8037 177.503 20.6144V47.254C177.503 48.9108 176.16 50.254 174.503 50.254H171.813C170.156 50.254 168.812 48.9108 168.812 47.254V4.92969C168.812 3.27284 170.156 1.92969 171.812 1.92969H175.297C176.352 1.92969 177.329 2.48349 177.871 3.3883L194.823 31.6943C195.24 32.3906 196.309 32.0949 196.309 31.2832V4.92969Z" fill="white"/>
<path d="M0.353658 39.1276C-0.0359924 37.5172 1.34247 36.1552 2.99932 36.1552H5.66942C7.29803 36.1552 8.58061 37.5209 9.34177 38.9606C10.6753 41.483 13.7068 43.3563 17.702 43.3563C23.0818 43.3563 25.8867 40.3219 25.8867 36.5629C25.8867 32.8038 22.9899 31.2186 18.8516 30.1317L12.7361 28.456C2.20641 25.7839 0.367168 19.5339 0.367168 15.3219C0.367168 6.76213 8.00002 0.965027 17.0123 0.965027C24.9863 0.965027 31.3764 5.2551 32.743 12.5177C33.0494 14.146 31.6706 15.5031 30.0137 15.5031H27.4153C25.7584 15.5031 24.4912 14.0947 23.7936 12.5918C22.6753 10.1825 20.1257 8.61901 16.7824 8.61901C12.2303 8.61901 9.10357 11.427 9.10357 15.2313C9.10357 19.0357 9.5174 19.3527 15.1731 20.8473L21.0127 22.523C28.6915 24.6063 34.6231 28.5465 34.6231 36.2458C34.6231 43.9451 27.1281 50.965 17.5181 50.965C9.10204 50.965 1.99079 45.8937 0.353658 39.1276Z" fill="white"/>
<path d="M52.06 8.28737C43.6944 16.5272 42.7113 28.9391 48.5041 38.4257C49.4343 39.949 51.5526 40.0625 52.8287 38.8055L54.8222 36.842C55.8764 35.8037 55.9783 34.1741 55.2718 32.8811C51.9187 26.7444 52.4437 19.2462 57.7498 14.0198C63.0599 8.78959 70.7834 8.17345 77.057 11.444C78.3701 12.1286 80.0176 12.0254 81.0681 10.9907L83.0439 9.04459C84.3201 7.7876 84.2048 5.7012 82.6582 4.78497C73.0269 -0.920727 60.4255 0.0475764 52.06 8.28737Z" fill="white"/>
<path d="M85.2283 15.0471C84.1744 16.0851 84.0729 17.7141 84.7734 19.0098C88.1316 25.2209 87.4509 32.867 82.1681 38.0704C76.8903 43.2688 69.2278 43.818 62.977 40.4941C61.6622 39.7949 60.0031 39.8931 58.9466 40.9337L56.9541 42.8963C55.6806 44.1506 55.792 46.2319 57.3326 47.1505C66.9682 52.8959 79.5914 51.881 87.9555 43.6427C96.3195 35.4044 97.3499 22.9709 91.5168 13.4802C90.5842 11.9627 88.4711 11.853 87.1977 13.1073L85.2283 15.0471Z" fill="white"/>
<path d="M145.569 15.0184C144.517 16.0574 144.416 17.6878 145.114 18.9853C148.459 25.1996 147.77 32.855 142.487 38.0706C137.21 43.2812 129.557 43.8406 123.318 40.5211C122.005 39.8223 120.349 39.9207 119.294 40.9624L117.296 42.9348C116.024 44.1909 116.135 46.2752 117.675 47.194C127.291 52.932 139.898 51.8999 148.261 43.6427C156.624 35.3855 157.669 22.938 151.858 13.4432C150.927 11.9229 148.816 11.8128 147.544 13.0688L145.569 15.0184ZM112.453 8.28737C104.089 16.5461 103.091 28.9719 108.862 38.4626C109.79 39.9888 111.906 40.1027 113.181 38.844L115.18 36.8706C116.232 35.8313 116.334 34.2003 115.63 32.9055C112.289 26.7657 112.823 19.2586 118.129 14.02C123.439 8.77747 131.153 8.15095 137.414 11.417C138.726 12.1012 140.371 11.9977 141.42 10.962L143.401 9.00617C144.676 7.74739 144.56 5.65792 143.015 4.74155C133.402 -0.956809 120.818 0.0286875 112.453 8.28737Z" fill="white"/>
</svg>
