<svg width="28" height="24" viewBox="0 0 28 24" fill="none" xmlns="http://www.w3.org/2000/svg">
<path d="M7.29018 5.10058H8.48399C9.11882 5.10058 9.63345 5.61521 9.63345 6.25004V7.44385C9.63345 8.07868 9.11882 8.59331 8.48399 8.59331H7.29018C6.65535 8.59331 6.14072 8.07868 6.14072 7.44385V6.25004C6.14072 5.61521 6.65535 5.10058 7.29018 5.10058Z" fill="#00BD39"/>
<path d="M3.80215 12.6751H4.99595C5.63078 12.6751 6.14542 13.1897 6.14542 13.8245V15.0183C6.14542 15.6532 5.63078 16.1678 4.99595 16.1678H3.80215C3.16732 16.1678 2.65268 15.6532 2.65268 15.0183V13.8245C2.65268 13.1897 3.16732 12.6751 3.80215 12.6751Z" fill="#00BD39"/>
<path d="M1.51226 9.86723H2.70607C3.3409 9.86723 3.85553 10.3819 3.85553 11.0167V12.2105C3.85553 12.8453 3.3409 13.36 2.70607 13.36H1.51226C0.877429 13.36 0.362797 12.8453 0.362797 12.2105V11.0167C0.362797 10.3819 0.877429 9.86723 1.51226 9.86723Z" fill="#00BD39"/>
<path d="M10.6052 3.77969H11.7991C12.4339 3.77969 12.9485 4.29432 12.9485 4.92915V6.12296C12.9485 6.75779 12.4339 7.27242 11.7991 7.27242H10.6052C9.97042 7.27242 9.45578 6.75779 9.45578 6.12296V4.92915C9.45578 4.29432 9.97042 3.77969 10.6052 3.77969Z" fill="#00BD39"/>
<path d="M23.0095 13.3316H24.2034C24.8382 13.3316 25.3528 13.8462 25.3528 14.481V15.6748C25.3528 16.3097 24.8382 16.8243 24.2034 16.8243H23.0095C22.3747 16.8243 21.8601 16.3097 21.8601 15.6748V14.481C21.8601 13.8462 22.3747 13.3316 23.0095 13.3316Z" fill="#00BD39"/>
<path d="M19.9939 15.6606H21.1877C21.8225 15.6606 22.3372 16.1752 22.3372 16.81V18.0038C22.3372 18.6387 21.8225 19.1533 21.1877 19.1533H19.9939C19.3591 19.1533 18.8444 18.6387 18.8444 18.0038V16.81C18.8444 16.1752 19.3591 15.6606 19.9939 15.6606Z" fill="#00BD39"/>
<path d="M23.0616 7.8201H24.2554C24.8902 7.8201 25.4048 8.33473 25.4048 8.96956V10.1634C25.4048 10.7982 24.8902 11.3128 24.2554 11.3128H23.0616C22.4267 11.3128 21.9121 10.7982 21.9121 10.1634V8.96956C21.9121 8.33473 22.4267 7.8201 23.0616 7.8201Z" fill="#00BD39"/>
<path d="M4.21346 7.12784H5.40727C6.0421 7.12784 6.55673 7.64247 6.55673 8.2773V9.47111C6.55673 10.1059 6.0421 10.6206 5.40727 10.6206H4.21346C3.57863 10.6206 3.064 10.1059 3.064 9.47111V8.2773C3.064 7.64247 3.57863 7.12784 4.21346 7.12784Z" fill="#00BD39"/>
<path d="M9.96551 16.9766H11.1593C11.7941 16.9766 12.3088 17.4912 12.3088 18.126V19.3198C12.3088 19.9547 11.7941 20.4693 11.1593 20.4693H9.96551C9.33068 20.4693 8.81604 19.9547 8.81604 19.3198V18.126C8.81604 17.4912 9.33068 16.9766 9.96551 16.9766Z" fill="#00BD39"/>
<path d="M6.71126 15.0786H7.90507C8.5399 15.0786 9.05453 15.5932 9.05453 16.2281V17.4219C9.05453 18.0567 8.5399 18.5713 7.90507 18.5713H6.71126C6.07643 18.5713 5.5618 18.0567 5.5618 17.4219V16.2281C5.5618 15.5932 6.07643 15.0786 6.71126 15.0786Z" fill="#00BD39"/>
<path d="M17.2633 3.79747H18.4571C19.0919 3.79747 19.6065 4.3121 19.6065 4.94693V6.14074C19.6065 6.77557 19.0919 7.2902 18.4571 7.2902H17.2633C16.6284 7.2902 16.1138 6.77557 16.1138 6.14074V4.94693C16.1138 4.3121 16.6284 3.79747 17.2633 3.79747Z" fill="#00BD39"/>
<path d="M16.6905 17.0798H17.8843C18.5192 17.0798 19.0338 17.5945 19.0338 18.2293V19.4231C19.0338 20.0579 18.5192 20.5726 17.8843 20.5726H16.6905C16.0557 20.5726 15.5411 20.0579 15.5411 19.4231V18.2293C15.5411 17.5945 16.0557 17.0798 16.6905 17.0798Z" fill="#00BD39"/>
<path d="M20.2825 5.87065H21.4763C22.1111 5.87065 22.6257 6.38528 22.6257 7.02011V8.21392C22.6257 8.84875 22.1111 9.36338 21.4763 9.36338H20.2825C19.6476 9.36338 19.133 8.84875 19.133 8.21392V7.02011C19.133 6.38528 19.6476 5.87065 20.2825 5.87065Z" fill="#00BD39"/>
<path d="M13.9282 3.16029H15.122C15.7568 3.16029 16.2715 3.67493 16.2715 4.30976V5.50356C16.2715 6.13839 15.7568 6.65303 15.122 6.65303H13.9282C13.2934 6.65303 12.7787 6.13839 12.7787 5.50356V4.30976C12.7787 3.67493 13.2934 3.16029 13.9282 3.16029Z" fill="#00BD39"/>
<path d="M13.3321 17.8279H14.5259C15.1607 17.8279 15.6754 18.3425 15.6754 18.9773V20.1711C15.6754 20.806 15.1607 21.3206 14.5259 21.3206H13.3321C12.6973 21.3206 12.1826 20.806 12.1826 20.1711V18.9773C12.1826 18.3425 12.6973 17.8279 13.3321 17.8279Z" fill="#00BD39"/>
<path d="M25.3643 10.5499H26.5581C27.1929 10.5499 27.7076 11.0645 27.7076 11.6994V12.8932C27.7076 13.528 27.1929 14.0426 26.5581 14.0426H25.3643C24.7295 14.0426 24.2148 13.528 24.2148 12.8932V11.6994C24.2148 11.0645 24.7295 10.5499 25.3643 10.5499Z" fill="#00BD39"/>
<path d="M13.8571 10.3594H15.0509C15.6857 10.3594 16.2003 10.874 16.2003 11.5089V12.7027C16.2003 13.3375 15.6857 13.8521 15.0509 13.8521H13.8571C13.2222 13.8521 12.7076 13.3375 12.7076 12.7027V11.5089C12.7076 10.874 13.2222 10.3594 13.8571 10.3594Z" fill="#00BD39"/>
</svg>
